G04 #@! TF.GenerationSoftware,KiCad,Pcbnew,5.1.5*
G04 #@! TF.CreationDate,2020-09-28T17:35:44-04:00*
G04 #@! TF.ProjectId,NanoX,4e616e6f-582e-46b6-9963-61645f706362,rev?*
G04 #@! TF.SameCoordinates,Original*
G04 #@! TF.FileFunction,Legend,Bot*
G04 #@! TF.FilePolarity,Positive*
%FSLAX46Y46*%
G04 Gerber Fmt 4.6, Leading zero omitted, Abs format (unit mm)*
G04 Created by KiCad (PCBNEW 5.1.5) date 2020-09-28 17:35:44*
%MOMM*%
%LPD*%
G04 APERTURE LIST*
%ADD10C,0.150000*%
%ADD11C,0.010000*%
%ADD12C,0.120000*%
G04 APERTURE END LIST*
D10*
X141331333Y-90030904D02*
X141331333Y-89230904D01*
X140874190Y-90030904D01*
X140874190Y-89230904D01*
X140150380Y-90030904D02*
X140150380Y-89611857D01*
X140188476Y-89535666D01*
X140264666Y-89497571D01*
X140417047Y-89497571D01*
X140493238Y-89535666D01*
X140150380Y-89992809D02*
X140226571Y-90030904D01*
X140417047Y-90030904D01*
X140493238Y-89992809D01*
X140531333Y-89916619D01*
X140531333Y-89840428D01*
X140493238Y-89764238D01*
X140417047Y-89726142D01*
X140226571Y-89726142D01*
X140150380Y-89688047D01*
X139769428Y-89497571D02*
X139769428Y-90030904D01*
X139769428Y-89573761D02*
X139731333Y-89535666D01*
X139655142Y-89497571D01*
X139540857Y-89497571D01*
X139464666Y-89535666D01*
X139426571Y-89611857D01*
X139426571Y-90030904D01*
X138931333Y-90030904D02*
X139007523Y-89992809D01*
X139045619Y-89954714D01*
X139083714Y-89878523D01*
X139083714Y-89649952D01*
X139045619Y-89573761D01*
X139007523Y-89535666D01*
X138931333Y-89497571D01*
X138817047Y-89497571D01*
X138740857Y-89535666D01*
X138702761Y-89573761D01*
X138664666Y-89649952D01*
X138664666Y-89878523D01*
X138702761Y-89954714D01*
X138740857Y-89992809D01*
X138817047Y-90030904D01*
X138931333Y-90030904D01*
X138398000Y-89230904D02*
X137864666Y-90030904D01*
X137864666Y-89230904D02*
X138398000Y-90030904D01*
X135274190Y-90030904D02*
X135540857Y-89649952D01*
X135731333Y-90030904D02*
X135731333Y-89230904D01*
X135426571Y-89230904D01*
X135350380Y-89269000D01*
X135312285Y-89307095D01*
X135274190Y-89383285D01*
X135274190Y-89497571D01*
X135312285Y-89573761D01*
X135350380Y-89611857D01*
X135426571Y-89649952D01*
X135731333Y-89649952D01*
X134626571Y-89992809D02*
X134702761Y-90030904D01*
X134855142Y-90030904D01*
X134931333Y-89992809D01*
X134969428Y-89916619D01*
X134969428Y-89611857D01*
X134931333Y-89535666D01*
X134855142Y-89497571D01*
X134702761Y-89497571D01*
X134626571Y-89535666D01*
X134588476Y-89611857D01*
X134588476Y-89688047D01*
X134969428Y-89764238D01*
X134321809Y-89497571D02*
X134131333Y-90030904D01*
X133940857Y-89497571D01*
X133636095Y-89954714D02*
X133598000Y-89992809D01*
X133636095Y-90030904D01*
X133674190Y-89992809D01*
X133636095Y-89954714D01*
X133636095Y-90030904D01*
X132645619Y-90030904D02*
X132645619Y-89230904D01*
X132340857Y-89230904D01*
X132264666Y-89269000D01*
X132226571Y-89307095D01*
X132188476Y-89383285D01*
X132188476Y-89497571D01*
X132226571Y-89573761D01*
X132264666Y-89611857D01*
X132340857Y-89649952D01*
X132645619Y-89649952D01*
X131426571Y-90030904D02*
X131883714Y-90030904D01*
X131655142Y-90030904D02*
X131655142Y-89230904D01*
X131731333Y-89345190D01*
X131807523Y-89421380D01*
X131883714Y-89459476D01*
X147102761Y-91380904D02*
X147102761Y-90580904D01*
X146759904Y-91380904D02*
X146759904Y-90961857D01*
X146798000Y-90885666D01*
X146874190Y-90847571D01*
X146988476Y-90847571D01*
X147064666Y-90885666D01*
X147102761Y-90923761D01*
X146493238Y-90847571D02*
X146188476Y-90847571D01*
X146378952Y-90580904D02*
X146378952Y-91266619D01*
X146340857Y-91342809D01*
X146264666Y-91380904D01*
X146188476Y-91380904D01*
X146036095Y-90847571D02*
X145731333Y-90847571D01*
X145921809Y-90580904D02*
X145921809Y-91266619D01*
X145883714Y-91342809D01*
X145807523Y-91380904D01*
X145731333Y-91380904D01*
X145464666Y-90847571D02*
X145464666Y-91647571D01*
X145464666Y-90885666D02*
X145388476Y-90847571D01*
X145236095Y-90847571D01*
X145159904Y-90885666D01*
X145121809Y-90923761D01*
X145083714Y-90999952D01*
X145083714Y-91228523D01*
X145121809Y-91304714D01*
X145159904Y-91342809D01*
X145236095Y-91380904D01*
X145388476Y-91380904D01*
X145464666Y-91342809D01*
X144778952Y-91342809D02*
X144702761Y-91380904D01*
X144550380Y-91380904D01*
X144474190Y-91342809D01*
X144436095Y-91266619D01*
X144436095Y-91228523D01*
X144474190Y-91152333D01*
X144550380Y-91114238D01*
X144664666Y-91114238D01*
X144740857Y-91076142D01*
X144778952Y-90999952D01*
X144778952Y-90961857D01*
X144740857Y-90885666D01*
X144664666Y-90847571D01*
X144550380Y-90847571D01*
X144474190Y-90885666D01*
X144093238Y-91304714D02*
X144055142Y-91342809D01*
X144093238Y-91380904D01*
X144131333Y-91342809D01*
X144093238Y-91304714D01*
X144093238Y-91380904D01*
X144093238Y-90885666D02*
X144055142Y-90923761D01*
X144093238Y-90961857D01*
X144131333Y-90923761D01*
X144093238Y-90885666D01*
X144093238Y-90961857D01*
X143140857Y-90542809D02*
X143826571Y-91571380D01*
X142302761Y-90542809D02*
X142988476Y-91571380D01*
X141693238Y-90847571D02*
X141693238Y-91495190D01*
X141731333Y-91571380D01*
X141769428Y-91609476D01*
X141845619Y-91647571D01*
X141959904Y-91647571D01*
X142036095Y-91609476D01*
X141693238Y-91342809D02*
X141769428Y-91380904D01*
X141921809Y-91380904D01*
X141998000Y-91342809D01*
X142036095Y-91304714D01*
X142074190Y-91228523D01*
X142074190Y-90999952D01*
X142036095Y-90923761D01*
X141998000Y-90885666D01*
X141921809Y-90847571D01*
X141769428Y-90847571D01*
X141693238Y-90885666D01*
X141312285Y-91380904D02*
X141312285Y-90847571D01*
X141312285Y-90580904D02*
X141350380Y-90619000D01*
X141312285Y-90657095D01*
X141274190Y-90619000D01*
X141312285Y-90580904D01*
X141312285Y-90657095D01*
X141045619Y-90847571D02*
X140740857Y-90847571D01*
X140931333Y-90580904D02*
X140931333Y-91266619D01*
X140893238Y-91342809D01*
X140817047Y-91380904D01*
X140740857Y-91380904D01*
X140474190Y-91380904D02*
X140474190Y-90580904D01*
X140131333Y-91380904D02*
X140131333Y-90961857D01*
X140169428Y-90885666D01*
X140245619Y-90847571D01*
X140359904Y-90847571D01*
X140436095Y-90885666D01*
X140474190Y-90923761D01*
X139407523Y-90847571D02*
X139407523Y-91380904D01*
X139750380Y-90847571D02*
X139750380Y-91266619D01*
X139712285Y-91342809D01*
X139636095Y-91380904D01*
X139521809Y-91380904D01*
X139445619Y-91342809D01*
X139407523Y-91304714D01*
X139026571Y-91380904D02*
X139026571Y-90580904D01*
X139026571Y-90885666D02*
X138950380Y-90847571D01*
X138798000Y-90847571D01*
X138721809Y-90885666D01*
X138683714Y-90923761D01*
X138645619Y-90999952D01*
X138645619Y-91228523D01*
X138683714Y-91304714D01*
X138721809Y-91342809D01*
X138798000Y-91380904D01*
X138950380Y-91380904D01*
X139026571Y-91342809D01*
X138302761Y-91304714D02*
X138264666Y-91342809D01*
X138302761Y-91380904D01*
X138340857Y-91342809D01*
X138302761Y-91304714D01*
X138302761Y-91380904D01*
X137578952Y-91342809D02*
X137655142Y-91380904D01*
X137807523Y-91380904D01*
X137883714Y-91342809D01*
X137921809Y-91304714D01*
X137959904Y-91228523D01*
X137959904Y-90999952D01*
X137921809Y-90923761D01*
X137883714Y-90885666D01*
X137807523Y-90847571D01*
X137655142Y-90847571D01*
X137578952Y-90885666D01*
X137121809Y-91380904D02*
X137198000Y-91342809D01*
X137236095Y-91304714D01*
X137274190Y-91228523D01*
X137274190Y-90999952D01*
X137236095Y-90923761D01*
X137198000Y-90885666D01*
X137121809Y-90847571D01*
X137007523Y-90847571D01*
X136931333Y-90885666D01*
X136893238Y-90923761D01*
X136855142Y-90999952D01*
X136855142Y-91228523D01*
X136893238Y-91304714D01*
X136931333Y-91342809D01*
X137007523Y-91380904D01*
X137121809Y-91380904D01*
X136512285Y-91380904D02*
X136512285Y-90847571D01*
X136512285Y-90923761D02*
X136474190Y-90885666D01*
X136398000Y-90847571D01*
X136283714Y-90847571D01*
X136207523Y-90885666D01*
X136169428Y-90961857D01*
X136169428Y-91380904D01*
X136169428Y-90961857D02*
X136131333Y-90885666D01*
X136055142Y-90847571D01*
X135940857Y-90847571D01*
X135864666Y-90885666D01*
X135826571Y-90961857D01*
X135826571Y-91380904D01*
X134874190Y-90542809D02*
X135559904Y-91571380D01*
X134340857Y-90961857D02*
X134226571Y-90999952D01*
X134188476Y-91038047D01*
X134150380Y-91114238D01*
X134150380Y-91228523D01*
X134188476Y-91304714D01*
X134226571Y-91342809D01*
X134302761Y-91380904D01*
X134607523Y-91380904D01*
X134607523Y-90580904D01*
X134340857Y-90580904D01*
X134264666Y-90619000D01*
X134226571Y-90657095D01*
X134188476Y-90733285D01*
X134188476Y-90809476D01*
X134226571Y-90885666D01*
X134264666Y-90923761D01*
X134340857Y-90961857D01*
X134607523Y-90961857D01*
X133464666Y-90847571D02*
X133464666Y-91380904D01*
X133807523Y-90847571D02*
X133807523Y-91266619D01*
X133769428Y-91342809D01*
X133693238Y-91380904D01*
X133578952Y-91380904D01*
X133502761Y-91342809D01*
X133464666Y-91304714D01*
X133083714Y-91076142D02*
X132474190Y-91076142D01*
X131674190Y-90619000D02*
X131750380Y-90580904D01*
X131864666Y-90580904D01*
X131978952Y-90619000D01*
X132055142Y-90695190D01*
X132093238Y-90771380D01*
X132131333Y-90923761D01*
X132131333Y-91038047D01*
X132093238Y-91190428D01*
X132055142Y-91266619D01*
X131978952Y-91342809D01*
X131864666Y-91380904D01*
X131788476Y-91380904D01*
X131674190Y-91342809D01*
X131636095Y-91304714D01*
X131636095Y-91038047D01*
X131788476Y-91038047D01*
X130988476Y-91342809D02*
X131064666Y-91380904D01*
X131217047Y-91380904D01*
X131293238Y-91342809D01*
X131331333Y-91266619D01*
X131331333Y-90961857D01*
X131293238Y-90885666D01*
X131217047Y-90847571D01*
X131064666Y-90847571D01*
X130988476Y-90885666D01*
X130950380Y-90961857D01*
X130950380Y-91038047D01*
X131331333Y-91114238D01*
X130302761Y-91342809D02*
X130378952Y-91380904D01*
X130531333Y-91380904D01*
X130607523Y-91342809D01*
X130645619Y-91266619D01*
X130645619Y-90961857D01*
X130607523Y-90885666D01*
X130531333Y-90847571D01*
X130378952Y-90847571D01*
X130302761Y-90885666D01*
X130264666Y-90961857D01*
X130264666Y-91038047D01*
X130645619Y-91114238D01*
X129350380Y-90542809D02*
X130036095Y-91571380D01*
X129083714Y-91380904D02*
X129083714Y-90580904D01*
X128626571Y-91380904D01*
X128626571Y-90580904D01*
X127902761Y-91380904D02*
X127902761Y-90961857D01*
X127940857Y-90885666D01*
X128017047Y-90847571D01*
X128169428Y-90847571D01*
X128245619Y-90885666D01*
X127902761Y-91342809D02*
X127978952Y-91380904D01*
X128169428Y-91380904D01*
X128245619Y-91342809D01*
X128283714Y-91266619D01*
X128283714Y-91190428D01*
X128245619Y-91114238D01*
X128169428Y-91076142D01*
X127978952Y-91076142D01*
X127902761Y-91038047D01*
X127521809Y-90847571D02*
X127521809Y-91380904D01*
X127521809Y-90923761D02*
X127483714Y-90885666D01*
X127407523Y-90847571D01*
X127293238Y-90847571D01*
X127217047Y-90885666D01*
X127178952Y-90961857D01*
X127178952Y-91380904D01*
X126683714Y-91380904D02*
X126759904Y-91342809D01*
X126798000Y-91304714D01*
X126836095Y-91228523D01*
X126836095Y-90999952D01*
X126798000Y-90923761D01*
X126759904Y-90885666D01*
X126683714Y-90847571D01*
X126569428Y-90847571D01*
X126493238Y-90885666D01*
X126455142Y-90923761D01*
X126417047Y-90999952D01*
X126417047Y-91228523D01*
X126455142Y-91304714D01*
X126493238Y-91342809D01*
X126569428Y-91380904D01*
X126683714Y-91380904D01*
X126150380Y-90580904D02*
X125617047Y-91380904D01*
X125617047Y-90580904D02*
X126150380Y-91380904D01*
X145255142Y-92654714D02*
X145293238Y-92692809D01*
X145407523Y-92730904D01*
X145483714Y-92730904D01*
X145598000Y-92692809D01*
X145674190Y-92616619D01*
X145712285Y-92540428D01*
X145750380Y-92388047D01*
X145750380Y-92273761D01*
X145712285Y-92121380D01*
X145674190Y-92045190D01*
X145598000Y-91969000D01*
X145483714Y-91930904D01*
X145407523Y-91930904D01*
X145293238Y-91969000D01*
X145255142Y-92007095D01*
X144798000Y-92730904D02*
X144874190Y-92692809D01*
X144912285Y-92654714D01*
X144950380Y-92578523D01*
X144950380Y-92349952D01*
X144912285Y-92273761D01*
X144874190Y-92235666D01*
X144798000Y-92197571D01*
X144683714Y-92197571D01*
X144607523Y-92235666D01*
X144569428Y-92273761D01*
X144531333Y-92349952D01*
X144531333Y-92578523D01*
X144569428Y-92654714D01*
X144607523Y-92692809D01*
X144683714Y-92730904D01*
X144798000Y-92730904D01*
X144188476Y-92197571D02*
X144188476Y-92997571D01*
X144188476Y-92235666D02*
X144112285Y-92197571D01*
X143959904Y-92197571D01*
X143883714Y-92235666D01*
X143845619Y-92273761D01*
X143807523Y-92349952D01*
X143807523Y-92578523D01*
X143845619Y-92654714D01*
X143883714Y-92692809D01*
X143959904Y-92730904D01*
X144112285Y-92730904D01*
X144188476Y-92692809D01*
X143540857Y-92197571D02*
X143350380Y-92730904D01*
X143159904Y-92197571D02*
X143350380Y-92730904D01*
X143426571Y-92921380D01*
X143464666Y-92959476D01*
X143540857Y-92997571D01*
X142855142Y-92730904D02*
X142855142Y-92197571D01*
X142855142Y-92349952D02*
X142817047Y-92273761D01*
X142778952Y-92235666D01*
X142702761Y-92197571D01*
X142626571Y-92197571D01*
X142359904Y-92730904D02*
X142359904Y-92197571D01*
X142359904Y-91930904D02*
X142398000Y-91969000D01*
X142359904Y-92007095D01*
X142321809Y-91969000D01*
X142359904Y-91930904D01*
X142359904Y-92007095D01*
X141636095Y-92197571D02*
X141636095Y-92845190D01*
X141674190Y-92921380D01*
X141712285Y-92959476D01*
X141788476Y-92997571D01*
X141902761Y-92997571D01*
X141978952Y-92959476D01*
X141636095Y-92692809D02*
X141712285Y-92730904D01*
X141864666Y-92730904D01*
X141940857Y-92692809D01*
X141978952Y-92654714D01*
X142017047Y-92578523D01*
X142017047Y-92349952D01*
X141978952Y-92273761D01*
X141940857Y-92235666D01*
X141864666Y-92197571D01*
X141712285Y-92197571D01*
X141636095Y-92235666D01*
X141255142Y-92730904D02*
X141255142Y-91930904D01*
X140912285Y-92730904D02*
X140912285Y-92311857D01*
X140950380Y-92235666D01*
X141026571Y-92197571D01*
X141140857Y-92197571D01*
X141217047Y-92235666D01*
X141255142Y-92273761D01*
X140645619Y-92197571D02*
X140340857Y-92197571D01*
X140531333Y-91930904D02*
X140531333Y-92616619D01*
X140493238Y-92692809D01*
X140417047Y-92730904D01*
X140340857Y-92730904D01*
X139845619Y-93035666D02*
X139883714Y-92997571D01*
X139959904Y-92883285D01*
X139998000Y-92807095D01*
X140036095Y-92692809D01*
X140074190Y-92502333D01*
X140074190Y-92349952D01*
X140036095Y-92159476D01*
X139998000Y-92045190D01*
X139959904Y-91969000D01*
X139883714Y-91854714D01*
X139845619Y-91816619D01*
X139198000Y-92692809D02*
X139274190Y-92730904D01*
X139426571Y-92730904D01*
X139502761Y-92692809D01*
X139540857Y-92654714D01*
X139578952Y-92578523D01*
X139578952Y-92349952D01*
X139540857Y-92273761D01*
X139502761Y-92235666D01*
X139426571Y-92197571D01*
X139274190Y-92197571D01*
X139198000Y-92235666D01*
X138931333Y-93035666D02*
X138893238Y-92997571D01*
X138817047Y-92883285D01*
X138778952Y-92807095D01*
X138740857Y-92692809D01*
X138702761Y-92502333D01*
X138702761Y-92349952D01*
X138740857Y-92159476D01*
X138778952Y-92045190D01*
X138817047Y-91969000D01*
X138893238Y-91854714D01*
X138931333Y-91816619D01*
X137750380Y-92007095D02*
X137712285Y-91969000D01*
X137636095Y-91930904D01*
X137445619Y-91930904D01*
X137369428Y-91969000D01*
X137331333Y-92007095D01*
X137293238Y-92083285D01*
X137293238Y-92159476D01*
X137331333Y-92273761D01*
X137788476Y-92730904D01*
X137293238Y-92730904D01*
X136798000Y-91930904D02*
X136721809Y-91930904D01*
X136645619Y-91969000D01*
X136607523Y-92007095D01*
X136569428Y-92083285D01*
X136531333Y-92235666D01*
X136531333Y-92426142D01*
X136569428Y-92578523D01*
X136607523Y-92654714D01*
X136645619Y-92692809D01*
X136721809Y-92730904D01*
X136798000Y-92730904D01*
X136874190Y-92692809D01*
X136912285Y-92654714D01*
X136950380Y-92578523D01*
X136988476Y-92426142D01*
X136988476Y-92235666D01*
X136950380Y-92083285D01*
X136912285Y-92007095D01*
X136874190Y-91969000D01*
X136798000Y-91930904D01*
X136226571Y-92007095D02*
X136188476Y-91969000D01*
X136112285Y-91930904D01*
X135921809Y-91930904D01*
X135845619Y-91969000D01*
X135807523Y-92007095D01*
X135769428Y-92083285D01*
X135769428Y-92159476D01*
X135807523Y-92273761D01*
X136264666Y-92730904D01*
X135769428Y-92730904D01*
X135274190Y-91930904D02*
X135198000Y-91930904D01*
X135121809Y-91969000D01*
X135083714Y-92007095D01*
X135045619Y-92083285D01*
X135007523Y-92235666D01*
X135007523Y-92426142D01*
X135045619Y-92578523D01*
X135083714Y-92654714D01*
X135121809Y-92692809D01*
X135198000Y-92730904D01*
X135274190Y-92730904D01*
X135350380Y-92692809D01*
X135388476Y-92654714D01*
X135426571Y-92578523D01*
X135464666Y-92426142D01*
X135464666Y-92235666D01*
X135426571Y-92083285D01*
X135388476Y-92007095D01*
X135350380Y-91969000D01*
X135274190Y-91930904D01*
X134626571Y-92692809D02*
X134626571Y-92730904D01*
X134664666Y-92807095D01*
X134702761Y-92845190D01*
X133407523Y-92311857D02*
X133674190Y-92311857D01*
X133674190Y-92730904D02*
X133674190Y-91930904D01*
X133293238Y-91930904D01*
X132874190Y-92730904D02*
X132950380Y-92692809D01*
X132988476Y-92654714D01*
X133026571Y-92578523D01*
X133026571Y-92349952D01*
X132988476Y-92273761D01*
X132950380Y-92235666D01*
X132874190Y-92197571D01*
X132759904Y-92197571D01*
X132683714Y-92235666D01*
X132645619Y-92273761D01*
X132607523Y-92349952D01*
X132607523Y-92578523D01*
X132645619Y-92654714D01*
X132683714Y-92692809D01*
X132759904Y-92730904D01*
X132874190Y-92730904D01*
X132264666Y-92730904D02*
X132264666Y-92197571D01*
X132264666Y-92349952D02*
X132226571Y-92273761D01*
X132188476Y-92235666D01*
X132112285Y-92197571D01*
X132036095Y-92197571D01*
X131883714Y-92197571D02*
X131578952Y-92197571D01*
X131769428Y-91930904D02*
X131769428Y-92616619D01*
X131731333Y-92692809D01*
X131655142Y-92730904D01*
X131578952Y-92730904D01*
X131312285Y-92730904D02*
X131312285Y-92197571D01*
X131312285Y-91930904D02*
X131350380Y-91969000D01*
X131312285Y-92007095D01*
X131274190Y-91969000D01*
X131312285Y-91930904D01*
X131312285Y-92007095D01*
X130588476Y-92730904D02*
X130588476Y-92311857D01*
X130626571Y-92235666D01*
X130702761Y-92197571D01*
X130855142Y-92197571D01*
X130931333Y-92235666D01*
X130588476Y-92692809D02*
X130664666Y-92730904D01*
X130855142Y-92730904D01*
X130931333Y-92692809D01*
X130969428Y-92616619D01*
X130969428Y-92540428D01*
X130931333Y-92464238D01*
X130855142Y-92426142D01*
X130664666Y-92426142D01*
X130588476Y-92388047D01*
X130207523Y-92197571D02*
X130207523Y-92730904D01*
X130207523Y-92273761D02*
X130169428Y-92235666D01*
X130093238Y-92197571D01*
X129978952Y-92197571D01*
X129902761Y-92235666D01*
X129864666Y-92311857D01*
X129864666Y-92730904D01*
X128874190Y-92730904D02*
X128874190Y-91930904D01*
X128493238Y-92197571D02*
X128493238Y-92730904D01*
X128493238Y-92273761D02*
X128455142Y-92235666D01*
X128378952Y-92197571D01*
X128264666Y-92197571D01*
X128188476Y-92235666D01*
X128150380Y-92311857D01*
X128150380Y-92730904D01*
X127426571Y-92692809D02*
X127502761Y-92730904D01*
X127655142Y-92730904D01*
X127731333Y-92692809D01*
X127769428Y-92654714D01*
X127807523Y-92578523D01*
X127807523Y-92349952D01*
X127769428Y-92273761D01*
X127731333Y-92235666D01*
X127655142Y-92197571D01*
X127502761Y-92197571D01*
X127426571Y-92235666D01*
X127083714Y-92654714D02*
X127045619Y-92692809D01*
X127083714Y-92730904D01*
X127121809Y-92692809D01*
X127083714Y-92654714D01*
X127083714Y-92730904D01*
X146588476Y-94080904D02*
X146969428Y-94080904D01*
X146969428Y-93280904D01*
X146321809Y-94080904D02*
X146321809Y-93547571D01*
X146321809Y-93280904D02*
X146359904Y-93319000D01*
X146321809Y-93357095D01*
X146283714Y-93319000D01*
X146321809Y-93280904D01*
X146321809Y-93357095D01*
X145598000Y-94042809D02*
X145674190Y-94080904D01*
X145826571Y-94080904D01*
X145902761Y-94042809D01*
X145940857Y-94004714D01*
X145978952Y-93928523D01*
X145978952Y-93699952D01*
X145940857Y-93623761D01*
X145902761Y-93585666D01*
X145826571Y-93547571D01*
X145674190Y-93547571D01*
X145598000Y-93585666D01*
X144950380Y-94042809D02*
X145026571Y-94080904D01*
X145178952Y-94080904D01*
X145255142Y-94042809D01*
X145293238Y-93966619D01*
X145293238Y-93661857D01*
X145255142Y-93585666D01*
X145178952Y-93547571D01*
X145026571Y-93547571D01*
X144950380Y-93585666D01*
X144912285Y-93661857D01*
X144912285Y-93738047D01*
X145293238Y-93814238D01*
X144569428Y-93547571D02*
X144569428Y-94080904D01*
X144569428Y-93623761D02*
X144531333Y-93585666D01*
X144455142Y-93547571D01*
X144340857Y-93547571D01*
X144264666Y-93585666D01*
X144226571Y-93661857D01*
X144226571Y-94080904D01*
X143883714Y-94042809D02*
X143807523Y-94080904D01*
X143655142Y-94080904D01*
X143578952Y-94042809D01*
X143540857Y-93966619D01*
X143540857Y-93928523D01*
X143578952Y-93852333D01*
X143655142Y-93814238D01*
X143769428Y-93814238D01*
X143845619Y-93776142D01*
X143883714Y-93699952D01*
X143883714Y-93661857D01*
X143845619Y-93585666D01*
X143769428Y-93547571D01*
X143655142Y-93547571D01*
X143578952Y-93585666D01*
X142893238Y-94042809D02*
X142969428Y-94080904D01*
X143121809Y-94080904D01*
X143198000Y-94042809D01*
X143236095Y-93966619D01*
X143236095Y-93661857D01*
X143198000Y-93585666D01*
X143121809Y-93547571D01*
X142969428Y-93547571D01*
X142893238Y-93585666D01*
X142855142Y-93661857D01*
X142855142Y-93738047D01*
X143236095Y-93814238D01*
X142169428Y-94080904D02*
X142169428Y-93280904D01*
X142169428Y-94042809D02*
X142245619Y-94080904D01*
X142398000Y-94080904D01*
X142474190Y-94042809D01*
X142512285Y-94004714D01*
X142550380Y-93928523D01*
X142550380Y-93699952D01*
X142512285Y-93623761D01*
X142474190Y-93585666D01*
X142398000Y-93547571D01*
X142245619Y-93547571D01*
X142169428Y-93585666D01*
X141178952Y-93280904D02*
X141178952Y-93928523D01*
X141140857Y-94004714D01*
X141102761Y-94042809D01*
X141026571Y-94080904D01*
X140874190Y-94080904D01*
X140798000Y-94042809D01*
X140759904Y-94004714D01*
X140721809Y-93928523D01*
X140721809Y-93280904D01*
X140340857Y-93547571D02*
X140340857Y-94080904D01*
X140340857Y-93623761D02*
X140302761Y-93585666D01*
X140226571Y-93547571D01*
X140112285Y-93547571D01*
X140036095Y-93585666D01*
X139998000Y-93661857D01*
X139998000Y-94080904D01*
X139274190Y-94080904D02*
X139274190Y-93280904D01*
X139274190Y-94042809D02*
X139350380Y-94080904D01*
X139502761Y-94080904D01*
X139578952Y-94042809D01*
X139617047Y-94004714D01*
X139655142Y-93928523D01*
X139655142Y-93699952D01*
X139617047Y-93623761D01*
X139578952Y-93585666D01*
X139502761Y-93547571D01*
X139350380Y-93547571D01*
X139274190Y-93585666D01*
X138588476Y-94042809D02*
X138664666Y-94080904D01*
X138817047Y-94080904D01*
X138893238Y-94042809D01*
X138931333Y-93966619D01*
X138931333Y-93661857D01*
X138893238Y-93585666D01*
X138817047Y-93547571D01*
X138664666Y-93547571D01*
X138588476Y-93585666D01*
X138550380Y-93661857D01*
X138550380Y-93738047D01*
X138931333Y-93814238D01*
X138207523Y-94080904D02*
X138207523Y-93547571D01*
X138207523Y-93699952D02*
X138169428Y-93623761D01*
X138131333Y-93585666D01*
X138055142Y-93547571D01*
X137978952Y-93547571D01*
X136645619Y-94004714D02*
X136683714Y-94042809D01*
X136798000Y-94080904D01*
X136874190Y-94080904D01*
X136988476Y-94042809D01*
X137064666Y-93966619D01*
X137102761Y-93890428D01*
X137140857Y-93738047D01*
X137140857Y-93623761D01*
X137102761Y-93471380D01*
X137064666Y-93395190D01*
X136988476Y-93319000D01*
X136874190Y-93280904D01*
X136798000Y-93280904D01*
X136683714Y-93319000D01*
X136645619Y-93357095D01*
X135845619Y-94004714D02*
X135883714Y-94042809D01*
X135998000Y-94080904D01*
X136074190Y-94080904D01*
X136188476Y-94042809D01*
X136264666Y-93966619D01*
X136302761Y-93890428D01*
X136340857Y-93738047D01*
X136340857Y-93623761D01*
X136302761Y-93471380D01*
X136264666Y-93395190D01*
X136188476Y-93319000D01*
X136074190Y-93280904D01*
X135998000Y-93280904D01*
X135883714Y-93319000D01*
X135845619Y-93357095D01*
X135502761Y-93776142D02*
X134893238Y-93776142D01*
X134245619Y-93661857D02*
X134131333Y-93699952D01*
X134093238Y-93738047D01*
X134055142Y-93814238D01*
X134055142Y-93928523D01*
X134093238Y-94004714D01*
X134131333Y-94042809D01*
X134207523Y-94080904D01*
X134512285Y-94080904D01*
X134512285Y-93280904D01*
X134245619Y-93280904D01*
X134169428Y-93319000D01*
X134131333Y-93357095D01*
X134093238Y-93433285D01*
X134093238Y-93509476D01*
X134131333Y-93585666D01*
X134169428Y-93623761D01*
X134245619Y-93661857D01*
X134512285Y-93661857D01*
X133559904Y-93699952D02*
X133559904Y-94080904D01*
X133826571Y-93280904D02*
X133559904Y-93699952D01*
X133293238Y-93280904D01*
X133026571Y-93776142D02*
X132417047Y-93776142D01*
X132036095Y-94080904D02*
X132036095Y-93280904D01*
X131578952Y-94080904D01*
X131578952Y-93280904D01*
X130740857Y-94004714D02*
X130778952Y-94042809D01*
X130893238Y-94080904D01*
X130969428Y-94080904D01*
X131083714Y-94042809D01*
X131159904Y-93966619D01*
X131198000Y-93890428D01*
X131236095Y-93738047D01*
X131236095Y-93623761D01*
X131198000Y-93471380D01*
X131159904Y-93395190D01*
X131083714Y-93319000D01*
X130969428Y-93280904D01*
X130893238Y-93280904D01*
X130778952Y-93319000D01*
X130740857Y-93357095D01*
X130398000Y-93776142D02*
X129788476Y-93776142D01*
X129445619Y-94042809D02*
X129331333Y-94080904D01*
X129140857Y-94080904D01*
X129064666Y-94042809D01*
X129026571Y-94004714D01*
X128988476Y-93928523D01*
X128988476Y-93852333D01*
X129026571Y-93776142D01*
X129064666Y-93738047D01*
X129140857Y-93699952D01*
X129293238Y-93661857D01*
X129369428Y-93623761D01*
X129407523Y-93585666D01*
X129445619Y-93509476D01*
X129445619Y-93433285D01*
X129407523Y-93357095D01*
X129369428Y-93319000D01*
X129293238Y-93280904D01*
X129102761Y-93280904D01*
X128988476Y-93319000D01*
X128683714Y-93852333D02*
X128302761Y-93852333D01*
X128759904Y-94080904D02*
X128493238Y-93280904D01*
X128226571Y-94080904D01*
X127426571Y-93280904D02*
X126931333Y-93280904D01*
X127198000Y-93585666D01*
X127083714Y-93585666D01*
X127007523Y-93623761D01*
X126969428Y-93661857D01*
X126931333Y-93738047D01*
X126931333Y-93928523D01*
X126969428Y-94004714D01*
X127007523Y-94042809D01*
X127083714Y-94080904D01*
X127312285Y-94080904D01*
X127388476Y-94042809D01*
X127426571Y-94004714D01*
X126588476Y-94004714D02*
X126550380Y-94042809D01*
X126588476Y-94080904D01*
X126626571Y-94042809D01*
X126588476Y-94004714D01*
X126588476Y-94080904D01*
X126055142Y-93280904D02*
X125978952Y-93280904D01*
X125902761Y-93319000D01*
X125864666Y-93357095D01*
X125826571Y-93433285D01*
X125788476Y-93585666D01*
X125788476Y-93776142D01*
X125826571Y-93928523D01*
X125864666Y-94004714D01*
X125902761Y-94042809D01*
X125978952Y-94080904D01*
X126055142Y-94080904D01*
X126131333Y-94042809D01*
X126169428Y-94004714D01*
X126207523Y-93928523D01*
X126245619Y-93776142D01*
X126245619Y-93585666D01*
X126207523Y-93433285D01*
X126169428Y-93357095D01*
X126131333Y-93319000D01*
X126055142Y-93280904D01*
X151314095Y-99472571D02*
X150514095Y-98939238D01*
X151314095Y-98939238D02*
X150514095Y-99472571D01*
X150514095Y-98215428D02*
X150514095Y-98672571D01*
X150514095Y-98444000D02*
X151314095Y-98444000D01*
X151199809Y-98520190D01*
X151123619Y-98596380D01*
X151085523Y-98672571D01*
X151276000Y-97453523D02*
X151314095Y-97529714D01*
X151314095Y-97644000D01*
X151276000Y-97758285D01*
X151199809Y-97834476D01*
X151123619Y-97872571D01*
X150971238Y-97910666D01*
X150856952Y-97910666D01*
X150704571Y-97872571D01*
X150628380Y-97834476D01*
X150552190Y-97758285D01*
X150514095Y-97644000D01*
X150514095Y-97567809D01*
X150552190Y-97453523D01*
X150590285Y-97415428D01*
X150856952Y-97415428D01*
X150856952Y-97567809D01*
X151047428Y-96729714D02*
X150514095Y-96729714D01*
X151352190Y-96920190D02*
X150780761Y-97110666D01*
X150780761Y-96615428D01*
X153854095Y-99472571D02*
X153054095Y-98939238D01*
X153854095Y-98939238D02*
X153054095Y-99472571D01*
X153054095Y-98215428D02*
X153054095Y-98672571D01*
X153054095Y-98444000D02*
X153854095Y-98444000D01*
X153739809Y-98520190D01*
X153663619Y-98596380D01*
X153625523Y-98672571D01*
X153816000Y-97453523D02*
X153854095Y-97529714D01*
X153854095Y-97644000D01*
X153816000Y-97758285D01*
X153739809Y-97834476D01*
X153663619Y-97872571D01*
X153511238Y-97910666D01*
X153396952Y-97910666D01*
X153244571Y-97872571D01*
X153168380Y-97834476D01*
X153092190Y-97758285D01*
X153054095Y-97644000D01*
X153054095Y-97567809D01*
X153092190Y-97453523D01*
X153130285Y-97415428D01*
X153396952Y-97415428D01*
X153396952Y-97567809D01*
X153854095Y-97148761D02*
X153854095Y-96653523D01*
X153549333Y-96920190D01*
X153549333Y-96805904D01*
X153511238Y-96729714D01*
X153473142Y-96691619D01*
X153396952Y-96653523D01*
X153206476Y-96653523D01*
X153130285Y-96691619D01*
X153092190Y-96729714D01*
X153054095Y-96805904D01*
X153054095Y-97034476D01*
X153092190Y-97110666D01*
X153130285Y-97148761D01*
X156394095Y-99472571D02*
X155594095Y-98939238D01*
X156394095Y-98939238D02*
X155594095Y-99472571D01*
X155594095Y-98215428D02*
X155594095Y-98672571D01*
X155594095Y-98444000D02*
X156394095Y-98444000D01*
X156279809Y-98520190D01*
X156203619Y-98596380D01*
X156165523Y-98672571D01*
X156356000Y-97453523D02*
X156394095Y-97529714D01*
X156394095Y-97644000D01*
X156356000Y-97758285D01*
X156279809Y-97834476D01*
X156203619Y-97872571D01*
X156051238Y-97910666D01*
X155936952Y-97910666D01*
X155784571Y-97872571D01*
X155708380Y-97834476D01*
X155632190Y-97758285D01*
X155594095Y-97644000D01*
X155594095Y-97567809D01*
X155632190Y-97453523D01*
X155670285Y-97415428D01*
X155936952Y-97415428D01*
X155936952Y-97567809D01*
X156317904Y-97110666D02*
X156356000Y-97072571D01*
X156394095Y-96996380D01*
X156394095Y-96805904D01*
X156356000Y-96729714D01*
X156317904Y-96691619D01*
X156241714Y-96653523D01*
X156165523Y-96653523D01*
X156051238Y-96691619D01*
X155594095Y-97148761D01*
X155594095Y-96653523D01*
X158934095Y-99472571D02*
X158134095Y-98939238D01*
X158934095Y-98939238D02*
X158134095Y-99472571D01*
X158134095Y-98215428D02*
X158134095Y-98672571D01*
X158134095Y-98444000D02*
X158934095Y-98444000D01*
X158819809Y-98520190D01*
X158743619Y-98596380D01*
X158705523Y-98672571D01*
X158896000Y-97453523D02*
X158934095Y-97529714D01*
X158934095Y-97644000D01*
X158896000Y-97758285D01*
X158819809Y-97834476D01*
X158743619Y-97872571D01*
X158591238Y-97910666D01*
X158476952Y-97910666D01*
X158324571Y-97872571D01*
X158248380Y-97834476D01*
X158172190Y-97758285D01*
X158134095Y-97644000D01*
X158134095Y-97567809D01*
X158172190Y-97453523D01*
X158210285Y-97415428D01*
X158476952Y-97415428D01*
X158476952Y-97567809D01*
X158134095Y-96653523D02*
X158134095Y-97110666D01*
X158134095Y-96882095D02*
X158934095Y-96882095D01*
X158819809Y-96958285D01*
X158743619Y-97034476D01*
X158705523Y-97110666D01*
X161474095Y-99472571D02*
X160674095Y-98939238D01*
X161474095Y-98939238D02*
X160674095Y-99472571D01*
X160674095Y-98215428D02*
X160674095Y-98672571D01*
X160674095Y-98444000D02*
X161474095Y-98444000D01*
X161359809Y-98520190D01*
X161283619Y-98596380D01*
X161245523Y-98672571D01*
X161436000Y-97453523D02*
X161474095Y-97529714D01*
X161474095Y-97644000D01*
X161436000Y-97758285D01*
X161359809Y-97834476D01*
X161283619Y-97872571D01*
X161131238Y-97910666D01*
X161016952Y-97910666D01*
X160864571Y-97872571D01*
X160788380Y-97834476D01*
X160712190Y-97758285D01*
X160674095Y-97644000D01*
X160674095Y-97567809D01*
X160712190Y-97453523D01*
X160750285Y-97415428D01*
X161016952Y-97415428D01*
X161016952Y-97567809D01*
X161474095Y-96920190D02*
X161474095Y-96844000D01*
X161436000Y-96767809D01*
X161397904Y-96729714D01*
X161321714Y-96691619D01*
X161169333Y-96653523D01*
X160978857Y-96653523D01*
X160826476Y-96691619D01*
X160750285Y-96729714D01*
X160712190Y-96767809D01*
X160674095Y-96844000D01*
X160674095Y-96920190D01*
X160712190Y-96996380D01*
X160750285Y-97034476D01*
X160826476Y-97072571D01*
X160978857Y-97110666D01*
X161169333Y-97110666D01*
X161321714Y-97072571D01*
X161397904Y-97034476D01*
X161436000Y-96996380D01*
X161474095Y-96920190D01*
X164014095Y-99491619D02*
X163214095Y-98958285D01*
X164014095Y-98958285D02*
X163214095Y-99491619D01*
X163252190Y-98691619D02*
X163214095Y-98577333D01*
X163214095Y-98386857D01*
X163252190Y-98310666D01*
X163290285Y-98272571D01*
X163366476Y-98234476D01*
X163442666Y-98234476D01*
X163518857Y-98272571D01*
X163556952Y-98310666D01*
X163595047Y-98386857D01*
X163633142Y-98539238D01*
X163671238Y-98615428D01*
X163709333Y-98653523D01*
X163785523Y-98691619D01*
X163861714Y-98691619D01*
X163937904Y-98653523D01*
X163976000Y-98615428D01*
X164014095Y-98539238D01*
X164014095Y-98348761D01*
X163976000Y-98234476D01*
X163290285Y-97434476D02*
X163252190Y-97472571D01*
X163214095Y-97586857D01*
X163214095Y-97663047D01*
X163252190Y-97777333D01*
X163328380Y-97853523D01*
X163404571Y-97891619D01*
X163556952Y-97929714D01*
X163671238Y-97929714D01*
X163823619Y-97891619D01*
X163899809Y-97853523D01*
X163976000Y-97777333D01*
X164014095Y-97663047D01*
X164014095Y-97586857D01*
X163976000Y-97472571D01*
X163937904Y-97434476D01*
X163214095Y-97091619D02*
X164014095Y-97091619D01*
X163214095Y-96634476D02*
X163671238Y-96977333D01*
X164014095Y-96634476D02*
X163556952Y-97091619D01*
X166554095Y-99523333D02*
X165754095Y-98990000D01*
X166554095Y-98990000D02*
X165754095Y-99523333D01*
X165754095Y-98266190D02*
X165754095Y-98723333D01*
X165754095Y-98494761D02*
X166554095Y-98494761D01*
X166439809Y-98570952D01*
X166363619Y-98647142D01*
X166325523Y-98723333D01*
X165677904Y-98113809D02*
X165677904Y-97504285D01*
X165830285Y-96856666D02*
X165792190Y-96894761D01*
X165754095Y-97009047D01*
X165754095Y-97085238D01*
X165792190Y-97199523D01*
X165868380Y-97275714D01*
X165944571Y-97313809D01*
X166096952Y-97351904D01*
X166211238Y-97351904D01*
X166363619Y-97313809D01*
X166439809Y-97275714D01*
X166516000Y-97199523D01*
X166554095Y-97085238D01*
X166554095Y-97009047D01*
X166516000Y-96894761D01*
X166477904Y-96856666D01*
X165792190Y-96551904D02*
X165754095Y-96437619D01*
X165754095Y-96247142D01*
X165792190Y-96170952D01*
X165830285Y-96132857D01*
X165906476Y-96094761D01*
X165982666Y-96094761D01*
X166058857Y-96132857D01*
X166096952Y-96170952D01*
X166135047Y-96247142D01*
X166173142Y-96399523D01*
X166211238Y-96475714D01*
X166249333Y-96513809D01*
X166325523Y-96551904D01*
X166401714Y-96551904D01*
X166477904Y-96513809D01*
X166516000Y-96475714D01*
X166554095Y-96399523D01*
X166554095Y-96209047D01*
X166516000Y-96094761D01*
X169094095Y-99504285D02*
X168294095Y-98970952D01*
X169094095Y-98970952D02*
X168294095Y-99504285D01*
X168294095Y-98666190D02*
X169094095Y-98666190D01*
X168522666Y-98399523D01*
X169094095Y-98132857D01*
X168294095Y-98132857D01*
X168294095Y-97751904D02*
X169094095Y-97751904D01*
X168332190Y-97409047D02*
X168294095Y-97294761D01*
X168294095Y-97104285D01*
X168332190Y-97028095D01*
X168370285Y-96990000D01*
X168446476Y-96951904D01*
X168522666Y-96951904D01*
X168598857Y-96990000D01*
X168636952Y-97028095D01*
X168675047Y-97104285D01*
X168713142Y-97256666D01*
X168751238Y-97332857D01*
X168789333Y-97370952D01*
X168865523Y-97409047D01*
X168941714Y-97409047D01*
X169017904Y-97370952D01*
X169056000Y-97332857D01*
X169094095Y-97256666D01*
X169094095Y-97066190D01*
X169056000Y-96951904D01*
X169094095Y-96456666D02*
X169094095Y-96304285D01*
X169056000Y-96228095D01*
X168979809Y-96151904D01*
X168827428Y-96113809D01*
X168560761Y-96113809D01*
X168408380Y-96151904D01*
X168332190Y-96228095D01*
X168294095Y-96304285D01*
X168294095Y-96456666D01*
X168332190Y-96532857D01*
X168408380Y-96609047D01*
X168560761Y-96647142D01*
X168827428Y-96647142D01*
X168979809Y-96609047D01*
X169056000Y-96532857D01*
X169094095Y-96456666D01*
X171634095Y-99504285D02*
X170834095Y-98970952D01*
X171634095Y-98970952D02*
X170834095Y-99504285D01*
X170834095Y-98666190D02*
X171634095Y-98666190D01*
X171062666Y-98399523D01*
X171634095Y-98132857D01*
X170834095Y-98132857D01*
X171634095Y-97599523D02*
X171634095Y-97447142D01*
X171596000Y-97370952D01*
X171519809Y-97294761D01*
X171367428Y-97256666D01*
X171100761Y-97256666D01*
X170948380Y-97294761D01*
X170872190Y-97370952D01*
X170834095Y-97447142D01*
X170834095Y-97599523D01*
X170872190Y-97675714D01*
X170948380Y-97751904D01*
X171100761Y-97790000D01*
X171367428Y-97790000D01*
X171519809Y-97751904D01*
X171596000Y-97675714D01*
X171634095Y-97599523D01*
X170872190Y-96951904D02*
X170834095Y-96837619D01*
X170834095Y-96647142D01*
X170872190Y-96570952D01*
X170910285Y-96532857D01*
X170986476Y-96494761D01*
X171062666Y-96494761D01*
X171138857Y-96532857D01*
X171176952Y-96570952D01*
X171215047Y-96647142D01*
X171253142Y-96799523D01*
X171291238Y-96875714D01*
X171329333Y-96913809D01*
X171405523Y-96951904D01*
X171481714Y-96951904D01*
X171557904Y-96913809D01*
X171596000Y-96875714D01*
X171634095Y-96799523D01*
X171634095Y-96609047D01*
X171596000Y-96494761D01*
X170834095Y-96151904D02*
X171634095Y-96151904D01*
X174136000Y-99161523D02*
X174174095Y-99237714D01*
X174174095Y-99352000D01*
X174136000Y-99466285D01*
X174059809Y-99542476D01*
X173983619Y-99580571D01*
X173831238Y-99618666D01*
X173716952Y-99618666D01*
X173564571Y-99580571D01*
X173488380Y-99542476D01*
X173412190Y-99466285D01*
X173374095Y-99352000D01*
X173374095Y-99275809D01*
X173412190Y-99161523D01*
X173450285Y-99123428D01*
X173716952Y-99123428D01*
X173716952Y-99275809D01*
X173374095Y-98780571D02*
X174174095Y-98780571D01*
X173374095Y-98323428D01*
X174174095Y-98323428D01*
X173374095Y-97942476D02*
X174174095Y-97942476D01*
X174174095Y-97752000D01*
X174136000Y-97637714D01*
X174059809Y-97561523D01*
X173983619Y-97523428D01*
X173831238Y-97485333D01*
X173716952Y-97485333D01*
X173564571Y-97523428D01*
X173488380Y-97561523D01*
X173412190Y-97637714D01*
X173374095Y-97752000D01*
X173374095Y-97942476D01*
X176714095Y-99542476D02*
X176714095Y-99047238D01*
X176409333Y-99313904D01*
X176409333Y-99199619D01*
X176371238Y-99123428D01*
X176333142Y-99085333D01*
X176256952Y-99047238D01*
X176066476Y-99047238D01*
X175990285Y-99085333D01*
X175952190Y-99123428D01*
X175914095Y-99199619D01*
X175914095Y-99428190D01*
X175952190Y-99504380D01*
X175990285Y-99542476D01*
X176714095Y-98818666D02*
X175914095Y-98552000D01*
X176714095Y-98285333D01*
X176714095Y-98094857D02*
X176714095Y-97599619D01*
X176409333Y-97866285D01*
X176409333Y-97752000D01*
X176371238Y-97675809D01*
X176333142Y-97637714D01*
X176256952Y-97599619D01*
X176066476Y-97599619D01*
X175990285Y-97637714D01*
X175952190Y-97675809D01*
X175914095Y-97752000D01*
X175914095Y-97980571D01*
X175952190Y-98056761D01*
X175990285Y-98094857D01*
X176714095Y-90328571D02*
X175914095Y-89795238D01*
X176714095Y-89795238D02*
X175914095Y-90328571D01*
X176637904Y-89528571D02*
X176676000Y-89490476D01*
X176714095Y-89414285D01*
X176714095Y-89223809D01*
X176676000Y-89147619D01*
X176637904Y-89109523D01*
X176561714Y-89071428D01*
X176485523Y-89071428D01*
X176371238Y-89109523D01*
X175914095Y-89566666D01*
X175914095Y-89071428D01*
X176676000Y-88309523D02*
X176714095Y-88385714D01*
X176714095Y-88500000D01*
X176676000Y-88614285D01*
X176599809Y-88690476D01*
X176523619Y-88728571D01*
X176371238Y-88766666D01*
X176256952Y-88766666D01*
X176104571Y-88728571D01*
X176028380Y-88690476D01*
X175952190Y-88614285D01*
X175914095Y-88500000D01*
X175914095Y-88423809D01*
X175952190Y-88309523D01*
X175990285Y-88271428D01*
X176256952Y-88271428D01*
X176256952Y-88423809D01*
X176447428Y-87585714D02*
X175914095Y-87585714D01*
X176752190Y-87776190D02*
X176180761Y-87966666D01*
X176180761Y-87471428D01*
X174174095Y-90328571D02*
X173374095Y-89795238D01*
X174174095Y-89795238D02*
X173374095Y-90328571D01*
X174097904Y-89528571D02*
X174136000Y-89490476D01*
X174174095Y-89414285D01*
X174174095Y-89223809D01*
X174136000Y-89147619D01*
X174097904Y-89109523D01*
X174021714Y-89071428D01*
X173945523Y-89071428D01*
X173831238Y-89109523D01*
X173374095Y-89566666D01*
X173374095Y-89071428D01*
X174136000Y-88309523D02*
X174174095Y-88385714D01*
X174174095Y-88500000D01*
X174136000Y-88614285D01*
X174059809Y-88690476D01*
X173983619Y-88728571D01*
X173831238Y-88766666D01*
X173716952Y-88766666D01*
X173564571Y-88728571D01*
X173488380Y-88690476D01*
X173412190Y-88614285D01*
X173374095Y-88500000D01*
X173374095Y-88423809D01*
X173412190Y-88309523D01*
X173450285Y-88271428D01*
X173716952Y-88271428D01*
X173716952Y-88423809D01*
X174174095Y-88004761D02*
X174174095Y-87509523D01*
X173869333Y-87776190D01*
X173869333Y-87661904D01*
X173831238Y-87585714D01*
X173793142Y-87547619D01*
X173716952Y-87509523D01*
X173526476Y-87509523D01*
X173450285Y-87547619D01*
X173412190Y-87585714D01*
X173374095Y-87661904D01*
X173374095Y-87890476D01*
X173412190Y-87966666D01*
X173450285Y-88004761D01*
X171634095Y-90328571D02*
X170834095Y-89795238D01*
X171634095Y-89795238D02*
X170834095Y-90328571D01*
X171557904Y-89528571D02*
X171596000Y-89490476D01*
X171634095Y-89414285D01*
X171634095Y-89223809D01*
X171596000Y-89147619D01*
X171557904Y-89109523D01*
X171481714Y-89071428D01*
X171405523Y-89071428D01*
X171291238Y-89109523D01*
X170834095Y-89566666D01*
X170834095Y-89071428D01*
X171596000Y-88309523D02*
X171634095Y-88385714D01*
X171634095Y-88500000D01*
X171596000Y-88614285D01*
X171519809Y-88690476D01*
X171443619Y-88728571D01*
X171291238Y-88766666D01*
X171176952Y-88766666D01*
X171024571Y-88728571D01*
X170948380Y-88690476D01*
X170872190Y-88614285D01*
X170834095Y-88500000D01*
X170834095Y-88423809D01*
X170872190Y-88309523D01*
X170910285Y-88271428D01*
X171176952Y-88271428D01*
X171176952Y-88423809D01*
X171557904Y-87966666D02*
X171596000Y-87928571D01*
X171634095Y-87852380D01*
X171634095Y-87661904D01*
X171596000Y-87585714D01*
X171557904Y-87547619D01*
X171481714Y-87509523D01*
X171405523Y-87509523D01*
X171291238Y-87547619D01*
X170834095Y-88004761D01*
X170834095Y-87509523D01*
X169094095Y-90328571D02*
X168294095Y-89795238D01*
X169094095Y-89795238D02*
X168294095Y-90328571D01*
X169017904Y-89528571D02*
X169056000Y-89490476D01*
X169094095Y-89414285D01*
X169094095Y-89223809D01*
X169056000Y-89147619D01*
X169017904Y-89109523D01*
X168941714Y-89071428D01*
X168865523Y-89071428D01*
X168751238Y-89109523D01*
X168294095Y-89566666D01*
X168294095Y-89071428D01*
X169056000Y-88309523D02*
X169094095Y-88385714D01*
X169094095Y-88500000D01*
X169056000Y-88614285D01*
X168979809Y-88690476D01*
X168903619Y-88728571D01*
X168751238Y-88766666D01*
X168636952Y-88766666D01*
X168484571Y-88728571D01*
X168408380Y-88690476D01*
X168332190Y-88614285D01*
X168294095Y-88500000D01*
X168294095Y-88423809D01*
X168332190Y-88309523D01*
X168370285Y-88271428D01*
X168636952Y-88271428D01*
X168636952Y-88423809D01*
X168294095Y-87509523D02*
X168294095Y-87966666D01*
X168294095Y-87738095D02*
X169094095Y-87738095D01*
X168979809Y-87814285D01*
X168903619Y-87890476D01*
X168865523Y-87966666D01*
X166554095Y-90328571D02*
X165754095Y-89795238D01*
X166554095Y-89795238D02*
X165754095Y-90328571D01*
X166477904Y-89528571D02*
X166516000Y-89490476D01*
X166554095Y-89414285D01*
X166554095Y-89223809D01*
X166516000Y-89147619D01*
X166477904Y-89109523D01*
X166401714Y-89071428D01*
X166325523Y-89071428D01*
X166211238Y-89109523D01*
X165754095Y-89566666D01*
X165754095Y-89071428D01*
X166516000Y-88309523D02*
X166554095Y-88385714D01*
X166554095Y-88500000D01*
X166516000Y-88614285D01*
X166439809Y-88690476D01*
X166363619Y-88728571D01*
X166211238Y-88766666D01*
X166096952Y-88766666D01*
X165944571Y-88728571D01*
X165868380Y-88690476D01*
X165792190Y-88614285D01*
X165754095Y-88500000D01*
X165754095Y-88423809D01*
X165792190Y-88309523D01*
X165830285Y-88271428D01*
X166096952Y-88271428D01*
X166096952Y-88423809D01*
X166554095Y-87776190D02*
X166554095Y-87700000D01*
X166516000Y-87623809D01*
X166477904Y-87585714D01*
X166401714Y-87547619D01*
X166249333Y-87509523D01*
X166058857Y-87509523D01*
X165906476Y-87547619D01*
X165830285Y-87585714D01*
X165792190Y-87623809D01*
X165754095Y-87700000D01*
X165754095Y-87776190D01*
X165792190Y-87852380D01*
X165830285Y-87890476D01*
X165906476Y-87928571D01*
X166058857Y-87966666D01*
X166249333Y-87966666D01*
X166401714Y-87928571D01*
X166477904Y-87890476D01*
X166516000Y-87852380D01*
X166554095Y-87776190D01*
X164014095Y-90601619D02*
X163214095Y-90068285D01*
X164014095Y-90068285D02*
X163214095Y-90601619D01*
X163252190Y-89801619D02*
X163214095Y-89687333D01*
X163214095Y-89496857D01*
X163252190Y-89420666D01*
X163290285Y-89382571D01*
X163366476Y-89344476D01*
X163442666Y-89344476D01*
X163518857Y-89382571D01*
X163556952Y-89420666D01*
X163595047Y-89496857D01*
X163633142Y-89649238D01*
X163671238Y-89725428D01*
X163709333Y-89763523D01*
X163785523Y-89801619D01*
X163861714Y-89801619D01*
X163937904Y-89763523D01*
X163976000Y-89725428D01*
X164014095Y-89649238D01*
X164014095Y-89458761D01*
X163976000Y-89344476D01*
X163290285Y-88544476D02*
X163252190Y-88582571D01*
X163214095Y-88696857D01*
X163214095Y-88773047D01*
X163252190Y-88887333D01*
X163328380Y-88963523D01*
X163404571Y-89001619D01*
X163556952Y-89039714D01*
X163671238Y-89039714D01*
X163823619Y-89001619D01*
X163899809Y-88963523D01*
X163976000Y-88887333D01*
X164014095Y-88773047D01*
X164014095Y-88696857D01*
X163976000Y-88582571D01*
X163937904Y-88544476D01*
X163214095Y-88201619D02*
X164014095Y-88201619D01*
X163214095Y-87744476D02*
X163671238Y-88087333D01*
X164014095Y-87744476D02*
X163556952Y-88201619D01*
X161474095Y-91141333D02*
X160674095Y-90608000D01*
X161474095Y-90608000D02*
X160674095Y-91141333D01*
X161397904Y-90341333D02*
X161436000Y-90303238D01*
X161474095Y-90227047D01*
X161474095Y-90036571D01*
X161436000Y-89960380D01*
X161397904Y-89922285D01*
X161321714Y-89884190D01*
X161245523Y-89884190D01*
X161131238Y-89922285D01*
X160674095Y-90379428D01*
X160674095Y-89884190D01*
X160597904Y-89731809D02*
X160597904Y-89122285D01*
X160750285Y-88474666D02*
X160712190Y-88512761D01*
X160674095Y-88627047D01*
X160674095Y-88703238D01*
X160712190Y-88817523D01*
X160788380Y-88893714D01*
X160864571Y-88931809D01*
X161016952Y-88969904D01*
X161131238Y-88969904D01*
X161283619Y-88931809D01*
X161359809Y-88893714D01*
X161436000Y-88817523D01*
X161474095Y-88703238D01*
X161474095Y-88627047D01*
X161436000Y-88512761D01*
X161397904Y-88474666D01*
X160712190Y-88169904D02*
X160674095Y-88055619D01*
X160674095Y-87865142D01*
X160712190Y-87788952D01*
X160750285Y-87750857D01*
X160826476Y-87712761D01*
X160902666Y-87712761D01*
X160978857Y-87750857D01*
X161016952Y-87788952D01*
X161055047Y-87865142D01*
X161093142Y-88017523D01*
X161131238Y-88093714D01*
X161169333Y-88131809D01*
X161245523Y-88169904D01*
X161321714Y-88169904D01*
X161397904Y-88131809D01*
X161436000Y-88093714D01*
X161474095Y-88017523D01*
X161474095Y-87827047D01*
X161436000Y-87712761D01*
X158934095Y-91122285D02*
X158134095Y-90588952D01*
X158934095Y-90588952D02*
X158134095Y-91122285D01*
X158134095Y-90284190D02*
X158934095Y-90284190D01*
X158362666Y-90017523D01*
X158934095Y-89750857D01*
X158134095Y-89750857D01*
X158134095Y-89369904D02*
X158934095Y-89369904D01*
X158172190Y-89027047D02*
X158134095Y-88912761D01*
X158134095Y-88722285D01*
X158172190Y-88646095D01*
X158210285Y-88608000D01*
X158286476Y-88569904D01*
X158362666Y-88569904D01*
X158438857Y-88608000D01*
X158476952Y-88646095D01*
X158515047Y-88722285D01*
X158553142Y-88874666D01*
X158591238Y-88950857D01*
X158629333Y-88988952D01*
X158705523Y-89027047D01*
X158781714Y-89027047D01*
X158857904Y-88988952D01*
X158896000Y-88950857D01*
X158934095Y-88874666D01*
X158934095Y-88684190D01*
X158896000Y-88569904D01*
X158934095Y-88074666D02*
X158934095Y-87922285D01*
X158896000Y-87846095D01*
X158819809Y-87769904D01*
X158667428Y-87731809D01*
X158400761Y-87731809D01*
X158248380Y-87769904D01*
X158172190Y-87846095D01*
X158134095Y-87922285D01*
X158134095Y-88074666D01*
X158172190Y-88150857D01*
X158248380Y-88227047D01*
X158400761Y-88265142D01*
X158667428Y-88265142D01*
X158819809Y-88227047D01*
X158896000Y-88150857D01*
X158934095Y-88074666D01*
X156394095Y-91122285D02*
X155594095Y-90588952D01*
X156394095Y-90588952D02*
X155594095Y-91122285D01*
X155594095Y-90284190D02*
X156394095Y-90284190D01*
X155822666Y-90017523D01*
X156394095Y-89750857D01*
X155594095Y-89750857D01*
X156394095Y-89217523D02*
X156394095Y-89065142D01*
X156356000Y-88988952D01*
X156279809Y-88912761D01*
X156127428Y-88874666D01*
X155860761Y-88874666D01*
X155708380Y-88912761D01*
X155632190Y-88988952D01*
X155594095Y-89065142D01*
X155594095Y-89217523D01*
X155632190Y-89293714D01*
X155708380Y-89369904D01*
X155860761Y-89408000D01*
X156127428Y-89408000D01*
X156279809Y-89369904D01*
X156356000Y-89293714D01*
X156394095Y-89217523D01*
X155632190Y-88569904D02*
X155594095Y-88455619D01*
X155594095Y-88265142D01*
X155632190Y-88188952D01*
X155670285Y-88150857D01*
X155746476Y-88112761D01*
X155822666Y-88112761D01*
X155898857Y-88150857D01*
X155936952Y-88188952D01*
X155975047Y-88265142D01*
X156013142Y-88417523D01*
X156051238Y-88493714D01*
X156089333Y-88531809D01*
X156165523Y-88569904D01*
X156241714Y-88569904D01*
X156317904Y-88531809D01*
X156356000Y-88493714D01*
X156394095Y-88417523D01*
X156394095Y-88227047D01*
X156356000Y-88112761D01*
X155594095Y-87769904D02*
X156394095Y-87769904D01*
X153816000Y-89255523D02*
X153854095Y-89331714D01*
X153854095Y-89446000D01*
X153816000Y-89560285D01*
X153739809Y-89636476D01*
X153663619Y-89674571D01*
X153511238Y-89712666D01*
X153396952Y-89712666D01*
X153244571Y-89674571D01*
X153168380Y-89636476D01*
X153092190Y-89560285D01*
X153054095Y-89446000D01*
X153054095Y-89369809D01*
X153092190Y-89255523D01*
X153130285Y-89217428D01*
X153396952Y-89217428D01*
X153396952Y-89369809D01*
X153054095Y-88874571D02*
X153854095Y-88874571D01*
X153054095Y-88417428D01*
X153854095Y-88417428D01*
X153054095Y-88036476D02*
X153854095Y-88036476D01*
X153854095Y-87846000D01*
X153816000Y-87731714D01*
X153739809Y-87655523D01*
X153663619Y-87617428D01*
X153511238Y-87579333D01*
X153396952Y-87579333D01*
X153244571Y-87617428D01*
X153168380Y-87655523D01*
X153092190Y-87731714D01*
X153054095Y-87846000D01*
X153054095Y-88036476D01*
X151314095Y-89636476D02*
X151314095Y-89141238D01*
X151009333Y-89407904D01*
X151009333Y-89293619D01*
X150971238Y-89217428D01*
X150933142Y-89179333D01*
X150856952Y-89141238D01*
X150666476Y-89141238D01*
X150590285Y-89179333D01*
X150552190Y-89217428D01*
X150514095Y-89293619D01*
X150514095Y-89522190D01*
X150552190Y-89598380D01*
X150590285Y-89636476D01*
X151314095Y-88912666D02*
X150514095Y-88646000D01*
X151314095Y-88379333D01*
X151314095Y-88188857D02*
X151314095Y-87693619D01*
X151009333Y-87960285D01*
X151009333Y-87846000D01*
X150971238Y-87769809D01*
X150933142Y-87731714D01*
X150856952Y-87693619D01*
X150666476Y-87693619D01*
X150590285Y-87731714D01*
X150552190Y-87769809D01*
X150514095Y-87846000D01*
X150514095Y-88074571D01*
X150552190Y-88150761D01*
X150590285Y-88188857D01*
X111264571Y-99637809D02*
X111150285Y-99675904D01*
X110959809Y-99675904D01*
X110883619Y-99637809D01*
X110845523Y-99599714D01*
X110807428Y-99523523D01*
X110807428Y-99447333D01*
X110845523Y-99371142D01*
X110883619Y-99333047D01*
X110959809Y-99294952D01*
X111112190Y-99256857D01*
X111188380Y-99218761D01*
X111226476Y-99180666D01*
X111264571Y-99104476D01*
X111264571Y-99028285D01*
X111226476Y-98952095D01*
X111188380Y-98914000D01*
X111112190Y-98875904D01*
X110921714Y-98875904D01*
X110807428Y-98914000D01*
X110007428Y-99599714D02*
X110045523Y-99637809D01*
X110159809Y-99675904D01*
X110236000Y-99675904D01*
X110350285Y-99637809D01*
X110426476Y-99561619D01*
X110464571Y-99485428D01*
X110502666Y-99333047D01*
X110502666Y-99218761D01*
X110464571Y-99066380D01*
X110426476Y-98990190D01*
X110350285Y-98914000D01*
X110236000Y-98875904D01*
X110159809Y-98875904D01*
X110045523Y-98914000D01*
X110007428Y-98952095D01*
X109664571Y-99675904D02*
X109664571Y-98875904D01*
X109207428Y-99675904D02*
X109550285Y-99218761D01*
X109207428Y-98875904D02*
X109664571Y-99333047D01*
X113766476Y-98875904D02*
X113271238Y-98875904D01*
X113537904Y-99180666D01*
X113423619Y-99180666D01*
X113347428Y-99218761D01*
X113309333Y-99256857D01*
X113271238Y-99333047D01*
X113271238Y-99523523D01*
X113309333Y-99599714D01*
X113347428Y-99637809D01*
X113423619Y-99675904D01*
X113652190Y-99675904D01*
X113728380Y-99637809D01*
X113766476Y-99599714D01*
X113042666Y-98875904D02*
X112776000Y-99675904D01*
X112509333Y-98875904D01*
X112318857Y-98875904D02*
X111823619Y-98875904D01*
X112090285Y-99180666D01*
X111976000Y-99180666D01*
X111899809Y-99218761D01*
X111861714Y-99256857D01*
X111823619Y-99333047D01*
X111823619Y-99523523D01*
X111861714Y-99599714D01*
X111899809Y-99637809D01*
X111976000Y-99675904D01*
X112204571Y-99675904D01*
X112280761Y-99637809D01*
X112318857Y-99599714D01*
X116611238Y-99447333D02*
X116230285Y-99447333D01*
X116687428Y-99675904D02*
X116420761Y-98875904D01*
X116154095Y-99675904D01*
X115430285Y-99675904D02*
X115696952Y-99294952D01*
X115887428Y-99675904D02*
X115887428Y-98875904D01*
X115582666Y-98875904D01*
X115506476Y-98914000D01*
X115468380Y-98952095D01*
X115430285Y-99028285D01*
X115430285Y-99142571D01*
X115468380Y-99218761D01*
X115506476Y-99256857D01*
X115582666Y-99294952D01*
X115887428Y-99294952D01*
X115087428Y-99256857D02*
X114820761Y-99256857D01*
X114706476Y-99675904D02*
X115087428Y-99675904D01*
X115087428Y-98875904D01*
X114706476Y-98875904D01*
X114096952Y-99256857D02*
X114363619Y-99256857D01*
X114363619Y-99675904D02*
X114363619Y-98875904D01*
X113982666Y-98875904D01*
X118427428Y-99447333D02*
X118046476Y-99447333D01*
X118503619Y-99675904D02*
X118236952Y-98875904D01*
X117970285Y-99675904D01*
X117551238Y-98875904D02*
X117475047Y-98875904D01*
X117398857Y-98914000D01*
X117360761Y-98952095D01*
X117322666Y-99028285D01*
X117284571Y-99180666D01*
X117284571Y-99371142D01*
X117322666Y-99523523D01*
X117360761Y-99599714D01*
X117398857Y-99637809D01*
X117475047Y-99675904D01*
X117551238Y-99675904D01*
X117627428Y-99637809D01*
X117665523Y-99599714D01*
X117703619Y-99523523D01*
X117741714Y-99371142D01*
X117741714Y-99180666D01*
X117703619Y-99028285D01*
X117665523Y-98952095D01*
X117627428Y-98914000D01*
X117551238Y-98875904D01*
X120967428Y-99447333D02*
X120586476Y-99447333D01*
X121043619Y-99675904D02*
X120776952Y-98875904D01*
X120510285Y-99675904D01*
X119824571Y-99675904D02*
X120281714Y-99675904D01*
X120053142Y-99675904D02*
X120053142Y-98875904D01*
X120129333Y-98990190D01*
X120205523Y-99066380D01*
X120281714Y-99104476D01*
X123507428Y-99447333D02*
X123126476Y-99447333D01*
X123583619Y-99675904D02*
X123316952Y-98875904D01*
X123050285Y-99675904D01*
X122821714Y-98952095D02*
X122783619Y-98914000D01*
X122707428Y-98875904D01*
X122516952Y-98875904D01*
X122440761Y-98914000D01*
X122402666Y-98952095D01*
X122364571Y-99028285D01*
X122364571Y-99104476D01*
X122402666Y-99218761D01*
X122859809Y-99675904D01*
X122364571Y-99675904D01*
X126047428Y-99447333D02*
X125666476Y-99447333D01*
X126123619Y-99675904D02*
X125856952Y-98875904D01*
X125590285Y-99675904D01*
X125399809Y-98875904D02*
X124904571Y-98875904D01*
X125171238Y-99180666D01*
X125056952Y-99180666D01*
X124980761Y-99218761D01*
X124942666Y-99256857D01*
X124904571Y-99333047D01*
X124904571Y-99523523D01*
X124942666Y-99599714D01*
X124980761Y-99637809D01*
X125056952Y-99675904D01*
X125285523Y-99675904D01*
X125361714Y-99637809D01*
X125399809Y-99599714D01*
X128587428Y-99447333D02*
X128206476Y-99447333D01*
X128663619Y-99675904D02*
X128396952Y-98875904D01*
X128130285Y-99675904D01*
X127520761Y-99142571D02*
X127520761Y-99675904D01*
X127711238Y-98837809D02*
X127901714Y-99409238D01*
X127406476Y-99409238D01*
X131127428Y-99447333D02*
X130746476Y-99447333D01*
X131203619Y-99675904D02*
X130936952Y-98875904D01*
X130670285Y-99675904D01*
X130022666Y-98875904D02*
X130403619Y-98875904D01*
X130441714Y-99256857D01*
X130403619Y-99218761D01*
X130327428Y-99180666D01*
X130136952Y-99180666D01*
X130060761Y-99218761D01*
X130022666Y-99256857D01*
X129984571Y-99333047D01*
X129984571Y-99523523D01*
X130022666Y-99599714D01*
X130060761Y-99637809D01*
X130136952Y-99675904D01*
X130327428Y-99675904D01*
X130403619Y-99637809D01*
X130441714Y-99599714D01*
X133667428Y-99447333D02*
X133286476Y-99447333D01*
X133743619Y-99675904D02*
X133476952Y-98875904D01*
X133210285Y-99675904D01*
X132600761Y-98875904D02*
X132753142Y-98875904D01*
X132829333Y-98914000D01*
X132867428Y-98952095D01*
X132943619Y-99066380D01*
X132981714Y-99218761D01*
X132981714Y-99523523D01*
X132943619Y-99599714D01*
X132905523Y-99637809D01*
X132829333Y-99675904D01*
X132676952Y-99675904D01*
X132600761Y-99637809D01*
X132562666Y-99599714D01*
X132524571Y-99523523D01*
X132524571Y-99333047D01*
X132562666Y-99256857D01*
X132600761Y-99218761D01*
X132676952Y-99180666D01*
X132829333Y-99180666D01*
X132905523Y-99218761D01*
X132943619Y-99256857D01*
X132981714Y-99333047D01*
X136207428Y-99447333D02*
X135826476Y-99447333D01*
X136283619Y-99675904D02*
X136016952Y-98875904D01*
X135750285Y-99675904D01*
X135559809Y-98875904D02*
X135026476Y-98875904D01*
X135369333Y-99675904D01*
X141154095Y-99675904D02*
X141420761Y-99294952D01*
X141611238Y-99675904D02*
X141611238Y-98875904D01*
X141306476Y-98875904D01*
X141230285Y-98914000D01*
X141192190Y-98952095D01*
X141154095Y-99028285D01*
X141154095Y-99142571D01*
X141192190Y-99218761D01*
X141230285Y-99256857D01*
X141306476Y-99294952D01*
X141611238Y-99294952D01*
X140849333Y-99637809D02*
X140735047Y-99675904D01*
X140544571Y-99675904D01*
X140468380Y-99637809D01*
X140430285Y-99599714D01*
X140392190Y-99523523D01*
X140392190Y-99447333D01*
X140430285Y-99371142D01*
X140468380Y-99333047D01*
X140544571Y-99294952D01*
X140696952Y-99256857D01*
X140773142Y-99218761D01*
X140811238Y-99180666D01*
X140849333Y-99104476D01*
X140849333Y-99028285D01*
X140811238Y-98952095D01*
X140773142Y-98914000D01*
X140696952Y-98875904D01*
X140506476Y-98875904D01*
X140392190Y-98914000D01*
X140163619Y-98875904D02*
X139706476Y-98875904D01*
X139935047Y-99675904D02*
X139935047Y-98875904D01*
X143865523Y-98914000D02*
X143941714Y-98875904D01*
X144056000Y-98875904D01*
X144170285Y-98914000D01*
X144246476Y-98990190D01*
X144284571Y-99066380D01*
X144322666Y-99218761D01*
X144322666Y-99333047D01*
X144284571Y-99485428D01*
X144246476Y-99561619D01*
X144170285Y-99637809D01*
X144056000Y-99675904D01*
X143979809Y-99675904D01*
X143865523Y-99637809D01*
X143827428Y-99599714D01*
X143827428Y-99333047D01*
X143979809Y-99333047D01*
X143484571Y-99675904D02*
X143484571Y-98875904D01*
X143027428Y-99675904D01*
X143027428Y-98875904D01*
X142646476Y-99675904D02*
X142646476Y-98875904D01*
X142456000Y-98875904D01*
X142341714Y-98914000D01*
X142265523Y-98990190D01*
X142227428Y-99066380D01*
X142189333Y-99218761D01*
X142189333Y-99333047D01*
X142227428Y-99485428D01*
X142265523Y-99561619D01*
X142341714Y-99637809D01*
X142456000Y-99675904D01*
X142646476Y-99675904D01*
X146672190Y-98875904D02*
X146405523Y-99675904D01*
X146138857Y-98875904D01*
X145872190Y-99675904D02*
X145872190Y-98875904D01*
X145491238Y-99675904D02*
X145491238Y-98875904D01*
X145034095Y-99675904D01*
X145034095Y-98875904D01*
X146405523Y-87445904D02*
X145948380Y-87445904D01*
X146176952Y-88245904D02*
X146176952Y-87445904D01*
X145757904Y-87445904D02*
X145224571Y-88245904D01*
X145224571Y-87445904D02*
X145757904Y-88245904D01*
X143389333Y-88245904D02*
X143656000Y-87864952D01*
X143846476Y-88245904D02*
X143846476Y-87445904D01*
X143541714Y-87445904D01*
X143465523Y-87484000D01*
X143427428Y-87522095D01*
X143389333Y-87598285D01*
X143389333Y-87712571D01*
X143427428Y-87788761D01*
X143465523Y-87826857D01*
X143541714Y-87864952D01*
X143846476Y-87864952D01*
X143122666Y-87445904D02*
X142589333Y-88245904D01*
X142589333Y-87445904D02*
X143122666Y-88245904D01*
X141154095Y-88245904D02*
X141420761Y-87864952D01*
X141611238Y-88245904D02*
X141611238Y-87445904D01*
X141306476Y-87445904D01*
X141230285Y-87484000D01*
X141192190Y-87522095D01*
X141154095Y-87598285D01*
X141154095Y-87712571D01*
X141192190Y-87788761D01*
X141230285Y-87826857D01*
X141306476Y-87864952D01*
X141611238Y-87864952D01*
X140849333Y-88207809D02*
X140735047Y-88245904D01*
X140544571Y-88245904D01*
X140468380Y-88207809D01*
X140430285Y-88169714D01*
X140392190Y-88093523D01*
X140392190Y-88017333D01*
X140430285Y-87941142D01*
X140468380Y-87903047D01*
X140544571Y-87864952D01*
X140696952Y-87826857D01*
X140773142Y-87788761D01*
X140811238Y-87750666D01*
X140849333Y-87674476D01*
X140849333Y-87598285D01*
X140811238Y-87522095D01*
X140773142Y-87484000D01*
X140696952Y-87445904D01*
X140506476Y-87445904D01*
X140392190Y-87484000D01*
X140163619Y-87445904D02*
X139706476Y-87445904D01*
X139935047Y-88245904D02*
X139935047Y-87445904D01*
X138734723Y-87484000D02*
X138810914Y-87445904D01*
X138925200Y-87445904D01*
X139039485Y-87484000D01*
X139115676Y-87560190D01*
X139153771Y-87636380D01*
X139191866Y-87788761D01*
X139191866Y-87903047D01*
X139153771Y-88055428D01*
X139115676Y-88131619D01*
X139039485Y-88207809D01*
X138925200Y-88245904D01*
X138849009Y-88245904D01*
X138734723Y-88207809D01*
X138696628Y-88169714D01*
X138696628Y-87903047D01*
X138849009Y-87903047D01*
X138353771Y-88245904D02*
X138353771Y-87445904D01*
X137896628Y-88245904D01*
X137896628Y-87445904D01*
X137515676Y-88245904D02*
X137515676Y-87445904D01*
X137325200Y-87445904D01*
X137210914Y-87484000D01*
X137134723Y-87560190D01*
X137096628Y-87636380D01*
X137058533Y-87788761D01*
X137058533Y-87903047D01*
X137096628Y-88055428D01*
X137134723Y-88131619D01*
X137210914Y-88207809D01*
X137325200Y-88245904D01*
X137515676Y-88245904D01*
X136175676Y-88245904D02*
X136175676Y-87445904D01*
X135985200Y-87445904D01*
X135870914Y-87484000D01*
X135794723Y-87560190D01*
X135756628Y-87636380D01*
X135718533Y-87788761D01*
X135718533Y-87903047D01*
X135756628Y-88055428D01*
X135794723Y-88131619D01*
X135870914Y-88207809D01*
X135985200Y-88245904D01*
X136175676Y-88245904D01*
X135413771Y-87522095D02*
X135375676Y-87484000D01*
X135299485Y-87445904D01*
X135109009Y-87445904D01*
X135032819Y-87484000D01*
X134994723Y-87522095D01*
X134956628Y-87598285D01*
X134956628Y-87674476D01*
X134994723Y-87788761D01*
X135451866Y-88245904D01*
X134956628Y-88245904D01*
X133686476Y-88245904D02*
X133686476Y-87445904D01*
X133496000Y-87445904D01*
X133381714Y-87484000D01*
X133305523Y-87560190D01*
X133267428Y-87636380D01*
X133229333Y-87788761D01*
X133229333Y-87903047D01*
X133267428Y-88055428D01*
X133305523Y-88131619D01*
X133381714Y-88207809D01*
X133496000Y-88245904D01*
X133686476Y-88245904D01*
X132962666Y-87445904D02*
X132467428Y-87445904D01*
X132734095Y-87750666D01*
X132619809Y-87750666D01*
X132543619Y-87788761D01*
X132505523Y-87826857D01*
X132467428Y-87903047D01*
X132467428Y-88093523D01*
X132505523Y-88169714D01*
X132543619Y-88207809D01*
X132619809Y-88245904D01*
X132848380Y-88245904D01*
X132924571Y-88207809D01*
X132962666Y-88169714D01*
X131146476Y-88245904D02*
X131146476Y-87445904D01*
X130956000Y-87445904D01*
X130841714Y-87484000D01*
X130765523Y-87560190D01*
X130727428Y-87636380D01*
X130689333Y-87788761D01*
X130689333Y-87903047D01*
X130727428Y-88055428D01*
X130765523Y-88131619D01*
X130841714Y-88207809D01*
X130956000Y-88245904D01*
X131146476Y-88245904D01*
X130003619Y-87712571D02*
X130003619Y-88245904D01*
X130194095Y-87407809D02*
X130384571Y-87979238D01*
X129889333Y-87979238D01*
X128606476Y-88245904D02*
X128606476Y-87445904D01*
X128416000Y-87445904D01*
X128301714Y-87484000D01*
X128225523Y-87560190D01*
X128187428Y-87636380D01*
X128149333Y-87788761D01*
X128149333Y-87903047D01*
X128187428Y-88055428D01*
X128225523Y-88131619D01*
X128301714Y-88207809D01*
X128416000Y-88245904D01*
X128606476Y-88245904D01*
X127425523Y-87445904D02*
X127806476Y-87445904D01*
X127844571Y-87826857D01*
X127806476Y-87788761D01*
X127730285Y-87750666D01*
X127539809Y-87750666D01*
X127463619Y-87788761D01*
X127425523Y-87826857D01*
X127387428Y-87903047D01*
X127387428Y-88093523D01*
X127425523Y-88169714D01*
X127463619Y-88207809D01*
X127539809Y-88245904D01*
X127730285Y-88245904D01*
X127806476Y-88207809D01*
X127844571Y-88169714D01*
X126066476Y-88245904D02*
X126066476Y-87445904D01*
X125876000Y-87445904D01*
X125761714Y-87484000D01*
X125685523Y-87560190D01*
X125647428Y-87636380D01*
X125609333Y-87788761D01*
X125609333Y-87903047D01*
X125647428Y-88055428D01*
X125685523Y-88131619D01*
X125761714Y-88207809D01*
X125876000Y-88245904D01*
X126066476Y-88245904D01*
X124923619Y-87445904D02*
X125076000Y-87445904D01*
X125152190Y-87484000D01*
X125190285Y-87522095D01*
X125266476Y-87636380D01*
X125304571Y-87788761D01*
X125304571Y-88093523D01*
X125266476Y-88169714D01*
X125228380Y-88207809D01*
X125152190Y-88245904D01*
X124999809Y-88245904D01*
X124923619Y-88207809D01*
X124885523Y-88169714D01*
X124847428Y-88093523D01*
X124847428Y-87903047D01*
X124885523Y-87826857D01*
X124923619Y-87788761D01*
X124999809Y-87750666D01*
X125152190Y-87750666D01*
X125228380Y-87788761D01*
X125266476Y-87826857D01*
X125304571Y-87903047D01*
X123526476Y-88245904D02*
X123526476Y-87445904D01*
X123336000Y-87445904D01*
X123221714Y-87484000D01*
X123145523Y-87560190D01*
X123107428Y-87636380D01*
X123069333Y-87788761D01*
X123069333Y-87903047D01*
X123107428Y-88055428D01*
X123145523Y-88131619D01*
X123221714Y-88207809D01*
X123336000Y-88245904D01*
X123526476Y-88245904D01*
X122802666Y-87445904D02*
X122269333Y-87445904D01*
X122612190Y-88245904D01*
X120986476Y-88245904D02*
X120986476Y-87445904D01*
X120796000Y-87445904D01*
X120681714Y-87484000D01*
X120605523Y-87560190D01*
X120567428Y-87636380D01*
X120529333Y-87788761D01*
X120529333Y-87903047D01*
X120567428Y-88055428D01*
X120605523Y-88131619D01*
X120681714Y-88207809D01*
X120796000Y-88245904D01*
X120986476Y-88245904D01*
X120072190Y-87788761D02*
X120148380Y-87750666D01*
X120186476Y-87712571D01*
X120224571Y-87636380D01*
X120224571Y-87598285D01*
X120186476Y-87522095D01*
X120148380Y-87484000D01*
X120072190Y-87445904D01*
X119919809Y-87445904D01*
X119843619Y-87484000D01*
X119805523Y-87522095D01*
X119767428Y-87598285D01*
X119767428Y-87636380D01*
X119805523Y-87712571D01*
X119843619Y-87750666D01*
X119919809Y-87788761D01*
X120072190Y-87788761D01*
X120148380Y-87826857D01*
X120186476Y-87864952D01*
X120224571Y-87941142D01*
X120224571Y-88093523D01*
X120186476Y-88169714D01*
X120148380Y-88207809D01*
X120072190Y-88245904D01*
X119919809Y-88245904D01*
X119843619Y-88207809D01*
X119805523Y-88169714D01*
X119767428Y-88093523D01*
X119767428Y-87941142D01*
X119805523Y-87864952D01*
X119843619Y-87826857D01*
X119919809Y-87788761D01*
X111207428Y-88245904D02*
X111207428Y-87445904D01*
X111016952Y-87445904D01*
X110902666Y-87484000D01*
X110826476Y-87560190D01*
X110788380Y-87636380D01*
X110750285Y-87788761D01*
X110750285Y-87903047D01*
X110788380Y-88055428D01*
X110826476Y-88131619D01*
X110902666Y-88207809D01*
X111016952Y-88245904D01*
X111207428Y-88245904D01*
X109988380Y-88245904D02*
X110445523Y-88245904D01*
X110216952Y-88245904D02*
X110216952Y-87445904D01*
X110293142Y-87560190D01*
X110369333Y-87636380D01*
X110445523Y-87674476D01*
X109683619Y-87522095D02*
X109645523Y-87484000D01*
X109569333Y-87445904D01*
X109378857Y-87445904D01*
X109302666Y-87484000D01*
X109264571Y-87522095D01*
X109226476Y-87598285D01*
X109226476Y-87674476D01*
X109264571Y-87788761D01*
X109721714Y-88245904D01*
X109226476Y-88245904D01*
X113747428Y-88245904D02*
X113747428Y-87445904D01*
X113556952Y-87445904D01*
X113442666Y-87484000D01*
X113366476Y-87560190D01*
X113328380Y-87636380D01*
X113290285Y-87788761D01*
X113290285Y-87903047D01*
X113328380Y-88055428D01*
X113366476Y-88131619D01*
X113442666Y-88207809D01*
X113556952Y-88245904D01*
X113747428Y-88245904D01*
X112528380Y-88245904D02*
X112985523Y-88245904D01*
X112756952Y-88245904D02*
X112756952Y-87445904D01*
X112833142Y-87560190D01*
X112909333Y-87636380D01*
X112985523Y-87674476D01*
X111766476Y-88245904D02*
X112223619Y-88245904D01*
X111995047Y-88245904D02*
X111995047Y-87445904D01*
X112071238Y-87560190D01*
X112147428Y-87636380D01*
X112223619Y-87674476D01*
X116287428Y-88245904D02*
X116287428Y-87445904D01*
X116096952Y-87445904D01*
X115982666Y-87484000D01*
X115906476Y-87560190D01*
X115868380Y-87636380D01*
X115830285Y-87788761D01*
X115830285Y-87903047D01*
X115868380Y-88055428D01*
X115906476Y-88131619D01*
X115982666Y-88207809D01*
X116096952Y-88245904D01*
X116287428Y-88245904D01*
X115068380Y-88245904D02*
X115525523Y-88245904D01*
X115296952Y-88245904D02*
X115296952Y-87445904D01*
X115373142Y-87560190D01*
X115449333Y-87636380D01*
X115525523Y-87674476D01*
X114573142Y-87445904D02*
X114496952Y-87445904D01*
X114420761Y-87484000D01*
X114382666Y-87522095D01*
X114344571Y-87598285D01*
X114306476Y-87750666D01*
X114306476Y-87941142D01*
X114344571Y-88093523D01*
X114382666Y-88169714D01*
X114420761Y-88207809D01*
X114496952Y-88245904D01*
X114573142Y-88245904D01*
X114649333Y-88207809D01*
X114687428Y-88169714D01*
X114725523Y-88093523D01*
X114763619Y-87941142D01*
X114763619Y-87750666D01*
X114725523Y-87598285D01*
X114687428Y-87522095D01*
X114649333Y-87484000D01*
X114573142Y-87445904D01*
X118446476Y-88245904D02*
X118446476Y-87445904D01*
X118256000Y-87445904D01*
X118141714Y-87484000D01*
X118065523Y-87560190D01*
X118027428Y-87636380D01*
X117989333Y-87788761D01*
X117989333Y-87903047D01*
X118027428Y-88055428D01*
X118065523Y-88131619D01*
X118141714Y-88207809D01*
X118256000Y-88245904D01*
X118446476Y-88245904D01*
X117608380Y-88245904D02*
X117456000Y-88245904D01*
X117379809Y-88207809D01*
X117341714Y-88169714D01*
X117265523Y-88055428D01*
X117227428Y-87903047D01*
X117227428Y-87598285D01*
X117265523Y-87522095D01*
X117303619Y-87484000D01*
X117379809Y-87445904D01*
X117532190Y-87445904D01*
X117608380Y-87484000D01*
X117646476Y-87522095D01*
X117684571Y-87598285D01*
X117684571Y-87788761D01*
X117646476Y-87864952D01*
X117608380Y-87903047D01*
X117532190Y-87941142D01*
X117379809Y-87941142D01*
X117303619Y-87903047D01*
X117265523Y-87864952D01*
X117227428Y-87788761D01*
D11*
G36*
X156070159Y-92720863D02*
G01*
X155906777Y-92743302D01*
X155777031Y-92777872D01*
X155749625Y-92789624D01*
X155586094Y-92898494D01*
X155437794Y-93051053D01*
X155322417Y-93227537D01*
X155287189Y-93306233D01*
X155227198Y-93537978D01*
X155212028Y-93786802D01*
X155241259Y-94030876D01*
X155304889Y-94227778D01*
X155416922Y-94417117D01*
X155565890Y-94580578D01*
X155737029Y-94703900D01*
X155850715Y-94754953D01*
X155980018Y-94784134D01*
X156140492Y-94799502D01*
X156307522Y-94800643D01*
X156456496Y-94787147D01*
X156543375Y-94766534D01*
X156732968Y-94666854D01*
X156894101Y-94519201D01*
X157015285Y-94336794D01*
X157082244Y-94146687D01*
X157104046Y-94043500D01*
X156847523Y-94043500D01*
X156715568Y-94045854D01*
X156636149Y-94054216D01*
X156598436Y-94070533D01*
X156591000Y-94089631D01*
X156562114Y-94206342D01*
X156482534Y-94299557D01*
X156362879Y-94362307D01*
X156213768Y-94387619D01*
X156140996Y-94385046D01*
X155985584Y-94341803D01*
X155864756Y-94246503D01*
X155779741Y-94101122D01*
X155731766Y-93907638D01*
X155720993Y-93709205D01*
X155743644Y-93489537D01*
X155804055Y-93319196D01*
X155901142Y-93199298D01*
X156033820Y-93130957D01*
X156201004Y-93115289D01*
X156288475Y-93125947D01*
X156378923Y-93156843D01*
X156461777Y-93209712D01*
X156529332Y-93274116D01*
X156573882Y-93339614D01*
X156587723Y-93395769D01*
X156563148Y-93432142D01*
X156520480Y-93440250D01*
X156493500Y-93446673D01*
X156496437Y-93470938D01*
X156534158Y-93520534D01*
X156611524Y-93602952D01*
X156654499Y-93646623D01*
X156859038Y-93852996D01*
X157042519Y-93671429D01*
X157127692Y-93584291D01*
X157191846Y-93513225D01*
X157224141Y-93470420D01*
X157226000Y-93465056D01*
X157198791Y-93446398D01*
X157146625Y-93440250D01*
X157085268Y-93426236D01*
X157066678Y-93374465D01*
X157066553Y-93368812D01*
X157038622Y-93241728D01*
X156965429Y-93103036D01*
X156859465Y-92967525D01*
X156733222Y-92849981D01*
X156599191Y-92765194D01*
X156535788Y-92740481D01*
X156407299Y-92718038D01*
X156244545Y-92711970D01*
X156070159Y-92720863D01*
G37*
X156070159Y-92720863D02*
X155906777Y-92743302D01*
X155777031Y-92777872D01*
X155749625Y-92789624D01*
X155586094Y-92898494D01*
X155437794Y-93051053D01*
X155322417Y-93227537D01*
X155287189Y-93306233D01*
X155227198Y-93537978D01*
X155212028Y-93786802D01*
X155241259Y-94030876D01*
X155304889Y-94227778D01*
X155416922Y-94417117D01*
X155565890Y-94580578D01*
X155737029Y-94703900D01*
X155850715Y-94754953D01*
X155980018Y-94784134D01*
X156140492Y-94799502D01*
X156307522Y-94800643D01*
X156456496Y-94787147D01*
X156543375Y-94766534D01*
X156732968Y-94666854D01*
X156894101Y-94519201D01*
X157015285Y-94336794D01*
X157082244Y-94146687D01*
X157104046Y-94043500D01*
X156847523Y-94043500D01*
X156715568Y-94045854D01*
X156636149Y-94054216D01*
X156598436Y-94070533D01*
X156591000Y-94089631D01*
X156562114Y-94206342D01*
X156482534Y-94299557D01*
X156362879Y-94362307D01*
X156213768Y-94387619D01*
X156140996Y-94385046D01*
X155985584Y-94341803D01*
X155864756Y-94246503D01*
X155779741Y-94101122D01*
X155731766Y-93907638D01*
X155720993Y-93709205D01*
X155743644Y-93489537D01*
X155804055Y-93319196D01*
X155901142Y-93199298D01*
X156033820Y-93130957D01*
X156201004Y-93115289D01*
X156288475Y-93125947D01*
X156378923Y-93156843D01*
X156461777Y-93209712D01*
X156529332Y-93274116D01*
X156573882Y-93339614D01*
X156587723Y-93395769D01*
X156563148Y-93432142D01*
X156520480Y-93440250D01*
X156493500Y-93446673D01*
X156496437Y-93470938D01*
X156534158Y-93520534D01*
X156611524Y-93602952D01*
X156654499Y-93646623D01*
X156859038Y-93852996D01*
X157042519Y-93671429D01*
X157127692Y-93584291D01*
X157191846Y-93513225D01*
X157224141Y-93470420D01*
X157226000Y-93465056D01*
X157198791Y-93446398D01*
X157146625Y-93440250D01*
X157085268Y-93426236D01*
X157066678Y-93374465D01*
X157066553Y-93368812D01*
X157038622Y-93241728D01*
X156965429Y-93103036D01*
X156859465Y-92967525D01*
X156733222Y-92849981D01*
X156599191Y-92765194D01*
X156535788Y-92740481D01*
X156407299Y-92718038D01*
X156244545Y-92711970D01*
X156070159Y-92720863D01*
G36*
X156019292Y-91778247D02*
G01*
X155870785Y-91789476D01*
X155743439Y-91811406D01*
X155622625Y-91844496D01*
X155323380Y-91969094D01*
X155045917Y-92144369D01*
X154798035Y-92361950D01*
X154587537Y-92613463D01*
X154422222Y-92890538D01*
X154309891Y-93184801D01*
X154287124Y-93277839D01*
X154249923Y-93558071D01*
X154248160Y-93859207D01*
X154281767Y-94149504D01*
X154289060Y-94186375D01*
X154384732Y-94493101D01*
X154536136Y-94781126D01*
X154736509Y-95043009D01*
X154979091Y-95271311D01*
X155257120Y-95458591D01*
X155563834Y-95597411D01*
X155575000Y-95601299D01*
X155748005Y-95644515D01*
X155960841Y-95673136D01*
X156191339Y-95686276D01*
X156417329Y-95683052D01*
X156616640Y-95662580D01*
X156697523Y-95646066D01*
X156985243Y-95543336D01*
X157260323Y-95387861D01*
X157514048Y-95188559D01*
X157737702Y-94954344D01*
X157922569Y-94694134D01*
X158059934Y-94416844D01*
X158131934Y-94178668D01*
X158174027Y-93839342D01*
X158172871Y-93809186D01*
X157817755Y-93809186D01*
X157773754Y-94095289D01*
X157676470Y-94369130D01*
X157530989Y-94623369D01*
X157342397Y-94850668D01*
X157115779Y-95043686D01*
X156856220Y-95195082D01*
X156570869Y-95296998D01*
X156370966Y-95327337D01*
X156141966Y-95329937D01*
X155911209Y-95306159D01*
X155706037Y-95257367D01*
X155694103Y-95253316D01*
X155436826Y-95133819D01*
X155189868Y-94960767D01*
X154999104Y-94779214D01*
X154816658Y-94534414D01*
X154688306Y-94261161D01*
X154616316Y-93967695D01*
X154602956Y-93662255D01*
X154630698Y-93440637D01*
X154701575Y-93174040D01*
X154806185Y-92945379D01*
X154955290Y-92734255D01*
X155070066Y-92608049D01*
X155316224Y-92399621D01*
X155590903Y-92247464D01*
X155891491Y-92152932D01*
X155979935Y-92136974D01*
X156281760Y-92121442D01*
X156574476Y-92164422D01*
X156851566Y-92260976D01*
X157106514Y-92406171D01*
X157332803Y-92595071D01*
X157523918Y-92822739D01*
X157673342Y-93084240D01*
X157774560Y-93374639D01*
X157803387Y-93518162D01*
X157817755Y-93809186D01*
X158172871Y-93809186D01*
X158160817Y-93494934D01*
X158094172Y-93159606D01*
X157975958Y-92847523D01*
X157949543Y-92795282D01*
X157851817Y-92643664D01*
X157715161Y-92476563D01*
X157555049Y-92309496D01*
X157386953Y-92157980D01*
X157226346Y-92037532D01*
X157146625Y-91990053D01*
X156942788Y-91893990D01*
X156750002Y-91829667D01*
X156546725Y-91792146D01*
X156311419Y-91776485D01*
X156210000Y-91775239D01*
X156019292Y-91778247D01*
G37*
X156019292Y-91778247D02*
X155870785Y-91789476D01*
X155743439Y-91811406D01*
X155622625Y-91844496D01*
X155323380Y-91969094D01*
X155045917Y-92144369D01*
X154798035Y-92361950D01*
X154587537Y-92613463D01*
X154422222Y-92890538D01*
X154309891Y-93184801D01*
X154287124Y-93277839D01*
X154249923Y-93558071D01*
X154248160Y-93859207D01*
X154281767Y-94149504D01*
X154289060Y-94186375D01*
X154384732Y-94493101D01*
X154536136Y-94781126D01*
X154736509Y-95043009D01*
X154979091Y-95271311D01*
X155257120Y-95458591D01*
X155563834Y-95597411D01*
X155575000Y-95601299D01*
X155748005Y-95644515D01*
X155960841Y-95673136D01*
X156191339Y-95686276D01*
X156417329Y-95683052D01*
X156616640Y-95662580D01*
X156697523Y-95646066D01*
X156985243Y-95543336D01*
X157260323Y-95387861D01*
X157514048Y-95188559D01*
X157737702Y-94954344D01*
X157922569Y-94694134D01*
X158059934Y-94416844D01*
X158131934Y-94178668D01*
X158174027Y-93839342D01*
X158172871Y-93809186D01*
X157817755Y-93809186D01*
X157773754Y-94095289D01*
X157676470Y-94369130D01*
X157530989Y-94623369D01*
X157342397Y-94850668D01*
X157115779Y-95043686D01*
X156856220Y-95195082D01*
X156570869Y-95296998D01*
X156370966Y-95327337D01*
X156141966Y-95329937D01*
X155911209Y-95306159D01*
X155706037Y-95257367D01*
X155694103Y-95253316D01*
X155436826Y-95133819D01*
X155189868Y-94960767D01*
X154999104Y-94779214D01*
X154816658Y-94534414D01*
X154688306Y-94261161D01*
X154616316Y-93967695D01*
X154602956Y-93662255D01*
X154630698Y-93440637D01*
X154701575Y-93174040D01*
X154806185Y-92945379D01*
X154955290Y-92734255D01*
X155070066Y-92608049D01*
X155316224Y-92399621D01*
X155590903Y-92247464D01*
X155891491Y-92152932D01*
X155979935Y-92136974D01*
X156281760Y-92121442D01*
X156574476Y-92164422D01*
X156851566Y-92260976D01*
X157106514Y-92406171D01*
X157332803Y-92595071D01*
X157523918Y-92822739D01*
X157673342Y-93084240D01*
X157774560Y-93374639D01*
X157803387Y-93518162D01*
X157817755Y-93809186D01*
X158172871Y-93809186D01*
X158160817Y-93494934D01*
X158094172Y-93159606D01*
X157975958Y-92847523D01*
X157949543Y-92795282D01*
X157851817Y-92643664D01*
X157715161Y-92476563D01*
X157555049Y-92309496D01*
X157386953Y-92157980D01*
X157226346Y-92037532D01*
X157146625Y-91990053D01*
X156942788Y-91893990D01*
X156750002Y-91829667D01*
X156546725Y-91792146D01*
X156311419Y-91776485D01*
X156210000Y-91775239D01*
X156019292Y-91778247D01*
G36*
X160638818Y-91800095D02*
G01*
X160328217Y-91890653D01*
X160036576Y-92029139D01*
X159770508Y-92212887D01*
X159536625Y-92439227D01*
X159341537Y-92705491D01*
X159191856Y-93009012D01*
X159162103Y-93091000D01*
X159098395Y-93357874D01*
X159072903Y-93653304D01*
X159084641Y-93957719D01*
X159132620Y-94251546D01*
X159215853Y-94515216D01*
X159236325Y-94561921D01*
X159392332Y-94829686D01*
X159598046Y-95076108D01*
X159842185Y-95292114D01*
X160113468Y-95468633D01*
X160400617Y-95596590D01*
X160587627Y-95648832D01*
X160788172Y-95677408D01*
X161020039Y-95688785D01*
X161253342Y-95682666D01*
X161458193Y-95658751D01*
X161464625Y-95657561D01*
X161706719Y-95585972D01*
X161957155Y-95464627D01*
X162200097Y-95302487D01*
X162400158Y-95128186D01*
X162513285Y-95009644D01*
X162618792Y-94887964D01*
X162701781Y-94780856D01*
X162735168Y-94729921D01*
X162883045Y-94412880D01*
X162972280Y-94078822D01*
X162998988Y-93776902D01*
X162644473Y-93776902D01*
X162605511Y-94067184D01*
X162513145Y-94343968D01*
X162372421Y-94600322D01*
X162188388Y-94829317D01*
X161966092Y-95024024D01*
X161710581Y-95177513D01*
X161426902Y-95282853D01*
X161290000Y-95312945D01*
X161154480Y-95333253D01*
X161042047Y-95339678D01*
X160923738Y-95332201D01*
X160782000Y-95312588D01*
X160527015Y-95245179D01*
X160271236Y-95127687D01*
X160032151Y-94970840D01*
X159827247Y-94785368D01*
X159729406Y-94666773D01*
X159676599Y-94589822D01*
X159644034Y-94534562D01*
X159639000Y-94520597D01*
X159665991Y-94496279D01*
X159737898Y-94457159D01*
X159841123Y-94408788D01*
X159962070Y-94356716D01*
X160087142Y-94306494D01*
X160202741Y-94263670D01*
X160295270Y-94233796D01*
X160351132Y-94222421D01*
X160361224Y-94225796D01*
X160433038Y-94354166D01*
X160551857Y-94473138D01*
X160701319Y-94569218D01*
X160843825Y-94623761D01*
X160885033Y-94645939D01*
X160904359Y-94695927D01*
X160909000Y-94786652D01*
X160911228Y-94875617D01*
X160926599Y-94918188D01*
X160968146Y-94931470D01*
X161020125Y-94932500D01*
X161131250Y-94932500D01*
X161131250Y-94773750D01*
X161134051Y-94679319D01*
X161147440Y-94632203D01*
X161178899Y-94616290D01*
X161204970Y-94615000D01*
X161315637Y-94598122D01*
X161448788Y-94554729D01*
X161575571Y-94495681D01*
X161648719Y-94447977D01*
X161737563Y-94376875D01*
X161597715Y-94239800D01*
X161457868Y-94102726D01*
X161343257Y-94180503D01*
X161178737Y-94262455D01*
X161019316Y-94282488D01*
X160894798Y-94252620D01*
X160817945Y-94211112D01*
X160786358Y-94160329D01*
X160782000Y-94112507D01*
X160794608Y-94034676D01*
X160821688Y-93988012D01*
X160866251Y-93962676D01*
X160958021Y-93917839D01*
X161088175Y-93857334D01*
X161247887Y-93784993D01*
X161428334Y-93704649D01*
X161620691Y-93620136D01*
X161816133Y-93535287D01*
X162005837Y-93453935D01*
X162180978Y-93379912D01*
X162332732Y-93317053D01*
X162452273Y-93269190D01*
X162530779Y-93240156D01*
X162559103Y-93233320D01*
X162577173Y-93270704D01*
X162599826Y-93353845D01*
X162622503Y-93465665D01*
X162624984Y-93480050D01*
X162644473Y-93776902D01*
X162998988Y-93776902D01*
X163002640Y-93735630D01*
X162973897Y-93391191D01*
X162885820Y-93053388D01*
X162794470Y-92837940D01*
X162369501Y-92837940D01*
X162342207Y-92856850D01*
X162267682Y-92895563D01*
X162156960Y-92948636D01*
X162021072Y-93010624D01*
X162005463Y-93017575D01*
X161641426Y-93179306D01*
X161577049Y-93070194D01*
X161500959Y-92984403D01*
X161390036Y-92906916D01*
X161270213Y-92853184D01*
X161186813Y-92837697D01*
X161152962Y-92825742D01*
X161136151Y-92781226D01*
X161131278Y-92689509D01*
X161131250Y-92678250D01*
X161131250Y-92519500D01*
X161021865Y-92519499D01*
X160955438Y-92522801D01*
X160922028Y-92543964D01*
X160908130Y-92599876D01*
X160902803Y-92668393D01*
X160894107Y-92758875D01*
X160871798Y-92807488D01*
X160818469Y-92834988D01*
X160746766Y-92854468D01*
X160632713Y-92890918D01*
X160526376Y-92936597D01*
X160500772Y-92950504D01*
X160401137Y-93009360D01*
X160532985Y-93143703D01*
X160664832Y-93278046D01*
X160763104Y-93227020D01*
X160879862Y-93185813D01*
X160999662Y-93174788D01*
X161107312Y-93191221D01*
X161187618Y-93232389D01*
X161225387Y-93295568D01*
X161226500Y-93310082D01*
X161198649Y-93337160D01*
X161120911Y-93384336D01*
X161002012Y-93447679D01*
X160850677Y-93523259D01*
X160675632Y-93607146D01*
X160485603Y-93695409D01*
X160289315Y-93784118D01*
X160095493Y-93869343D01*
X159912863Y-93947153D01*
X159750151Y-94013618D01*
X159616081Y-94064809D01*
X159519379Y-94096794D01*
X159468771Y-94105643D01*
X159464375Y-94103811D01*
X159451451Y-94060308D01*
X159441730Y-93967633D01*
X159436316Y-93840080D01*
X159435723Y-93732350D01*
X159458656Y-93424702D01*
X159524619Y-93156464D01*
X159638409Y-92916342D01*
X159804828Y-92693042D01*
X159933590Y-92560876D01*
X160162591Y-92372902D01*
X160396925Y-92241542D01*
X160649787Y-92161670D01*
X160934373Y-92128161D01*
X161051875Y-92126501D01*
X161302930Y-92141333D01*
X161516329Y-92184844D01*
X161713878Y-92263438D01*
X161909654Y-92378365D01*
X161994349Y-92442103D01*
X162091701Y-92526613D01*
X162189775Y-92619966D01*
X162276635Y-92710234D01*
X162340346Y-92785487D01*
X162368971Y-92833797D01*
X162369501Y-92837940D01*
X162794470Y-92837940D01*
X162790657Y-92828948D01*
X162666021Y-92625686D01*
X162498080Y-92419717D01*
X162303345Y-92227679D01*
X162098331Y-92066209D01*
X161938606Y-91970518D01*
X161618275Y-91842678D01*
X161290459Y-91773440D01*
X160961770Y-91760135D01*
X160638818Y-91800095D01*
G37*
X160638818Y-91800095D02*
X160328217Y-91890653D01*
X160036576Y-92029139D01*
X159770508Y-92212887D01*
X159536625Y-92439227D01*
X159341537Y-92705491D01*
X159191856Y-93009012D01*
X159162103Y-93091000D01*
X159098395Y-93357874D01*
X159072903Y-93653304D01*
X159084641Y-93957719D01*
X159132620Y-94251546D01*
X159215853Y-94515216D01*
X159236325Y-94561921D01*
X159392332Y-94829686D01*
X159598046Y-95076108D01*
X159842185Y-95292114D01*
X160113468Y-95468633D01*
X160400617Y-95596590D01*
X160587627Y-95648832D01*
X160788172Y-95677408D01*
X161020039Y-95688785D01*
X161253342Y-95682666D01*
X161458193Y-95658751D01*
X161464625Y-95657561D01*
X161706719Y-95585972D01*
X161957155Y-95464627D01*
X162200097Y-95302487D01*
X162400158Y-95128186D01*
X162513285Y-95009644D01*
X162618792Y-94887964D01*
X162701781Y-94780856D01*
X162735168Y-94729921D01*
X162883045Y-94412880D01*
X162972280Y-94078822D01*
X162998988Y-93776902D01*
X162644473Y-93776902D01*
X162605511Y-94067184D01*
X162513145Y-94343968D01*
X162372421Y-94600322D01*
X162188388Y-94829317D01*
X161966092Y-95024024D01*
X161710581Y-95177513D01*
X161426902Y-95282853D01*
X161290000Y-95312945D01*
X161154480Y-95333253D01*
X161042047Y-95339678D01*
X160923738Y-95332201D01*
X160782000Y-95312588D01*
X160527015Y-95245179D01*
X160271236Y-95127687D01*
X160032151Y-94970840D01*
X159827247Y-94785368D01*
X159729406Y-94666773D01*
X159676599Y-94589822D01*
X159644034Y-94534562D01*
X159639000Y-94520597D01*
X159665991Y-94496279D01*
X159737898Y-94457159D01*
X159841123Y-94408788D01*
X159962070Y-94356716D01*
X160087142Y-94306494D01*
X160202741Y-94263670D01*
X160295270Y-94233796D01*
X160351132Y-94222421D01*
X160361224Y-94225796D01*
X160433038Y-94354166D01*
X160551857Y-94473138D01*
X160701319Y-94569218D01*
X160843825Y-94623761D01*
X160885033Y-94645939D01*
X160904359Y-94695927D01*
X160909000Y-94786652D01*
X160911228Y-94875617D01*
X160926599Y-94918188D01*
X160968146Y-94931470D01*
X161020125Y-94932500D01*
X161131250Y-94932500D01*
X161131250Y-94773750D01*
X161134051Y-94679319D01*
X161147440Y-94632203D01*
X161178899Y-94616290D01*
X161204970Y-94615000D01*
X161315637Y-94598122D01*
X161448788Y-94554729D01*
X161575571Y-94495681D01*
X161648719Y-94447977D01*
X161737563Y-94376875D01*
X161597715Y-94239800D01*
X161457868Y-94102726D01*
X161343257Y-94180503D01*
X161178737Y-94262455D01*
X161019316Y-94282488D01*
X160894798Y-94252620D01*
X160817945Y-94211112D01*
X160786358Y-94160329D01*
X160782000Y-94112507D01*
X160794608Y-94034676D01*
X160821688Y-93988012D01*
X160866251Y-93962676D01*
X160958021Y-93917839D01*
X161088175Y-93857334D01*
X161247887Y-93784993D01*
X161428334Y-93704649D01*
X161620691Y-93620136D01*
X161816133Y-93535287D01*
X162005837Y-93453935D01*
X162180978Y-93379912D01*
X162332732Y-93317053D01*
X162452273Y-93269190D01*
X162530779Y-93240156D01*
X162559103Y-93233320D01*
X162577173Y-93270704D01*
X162599826Y-93353845D01*
X162622503Y-93465665D01*
X162624984Y-93480050D01*
X162644473Y-93776902D01*
X162998988Y-93776902D01*
X163002640Y-93735630D01*
X162973897Y-93391191D01*
X162885820Y-93053388D01*
X162794470Y-92837940D01*
X162369501Y-92837940D01*
X162342207Y-92856850D01*
X162267682Y-92895563D01*
X162156960Y-92948636D01*
X162021072Y-93010624D01*
X162005463Y-93017575D01*
X161641426Y-93179306D01*
X161577049Y-93070194D01*
X161500959Y-92984403D01*
X161390036Y-92906916D01*
X161270213Y-92853184D01*
X161186813Y-92837697D01*
X161152962Y-92825742D01*
X161136151Y-92781226D01*
X161131278Y-92689509D01*
X161131250Y-92678250D01*
X161131250Y-92519500D01*
X161021865Y-92519499D01*
X160955438Y-92522801D01*
X160922028Y-92543964D01*
X160908130Y-92599876D01*
X160902803Y-92668393D01*
X160894107Y-92758875D01*
X160871798Y-92807488D01*
X160818469Y-92834988D01*
X160746766Y-92854468D01*
X160632713Y-92890918D01*
X160526376Y-92936597D01*
X160500772Y-92950504D01*
X160401137Y-93009360D01*
X160532985Y-93143703D01*
X160664832Y-93278046D01*
X160763104Y-93227020D01*
X160879862Y-93185813D01*
X160999662Y-93174788D01*
X161107312Y-93191221D01*
X161187618Y-93232389D01*
X161225387Y-93295568D01*
X161226500Y-93310082D01*
X161198649Y-93337160D01*
X161120911Y-93384336D01*
X161002012Y-93447679D01*
X160850677Y-93523259D01*
X160675632Y-93607146D01*
X160485603Y-93695409D01*
X160289315Y-93784118D01*
X160095493Y-93869343D01*
X159912863Y-93947153D01*
X159750151Y-94013618D01*
X159616081Y-94064809D01*
X159519379Y-94096794D01*
X159468771Y-94105643D01*
X159464375Y-94103811D01*
X159451451Y-94060308D01*
X159441730Y-93967633D01*
X159436316Y-93840080D01*
X159435723Y-93732350D01*
X159458656Y-93424702D01*
X159524619Y-93156464D01*
X159638409Y-92916342D01*
X159804828Y-92693042D01*
X159933590Y-92560876D01*
X160162591Y-92372902D01*
X160396925Y-92241542D01*
X160649787Y-92161670D01*
X160934373Y-92128161D01*
X161051875Y-92126501D01*
X161302930Y-92141333D01*
X161516329Y-92184844D01*
X161713878Y-92263438D01*
X161909654Y-92378365D01*
X161994349Y-92442103D01*
X162091701Y-92526613D01*
X162189775Y-92619966D01*
X162276635Y-92710234D01*
X162340346Y-92785487D01*
X162368971Y-92833797D01*
X162369501Y-92837940D01*
X162794470Y-92837940D01*
X162790657Y-92828948D01*
X162666021Y-92625686D01*
X162498080Y-92419717D01*
X162303345Y-92227679D01*
X162098331Y-92066209D01*
X161938606Y-91970518D01*
X161618275Y-91842678D01*
X161290459Y-91773440D01*
X160961770Y-91760135D01*
X160638818Y-91800095D01*
G36*
X165729838Y-92480066D02*
G01*
X165639312Y-92552072D01*
X165590753Y-92671727D01*
X165586714Y-92696650D01*
X165582730Y-92793806D01*
X165609345Y-92864036D01*
X165644277Y-92907489D01*
X165757583Y-92987899D01*
X165895232Y-93010524D01*
X165948680Y-93004364D01*
X166043907Y-92957516D01*
X166110939Y-92866911D01*
X166139321Y-92749762D01*
X166136899Y-92694449D01*
X166095311Y-92567860D01*
X166011125Y-92488313D01*
X165885237Y-92456587D01*
X165862000Y-92456000D01*
X165729838Y-92480066D01*
G37*
X165729838Y-92480066D02*
X165639312Y-92552072D01*
X165590753Y-92671727D01*
X165586714Y-92696650D01*
X165582730Y-92793806D01*
X165609345Y-92864036D01*
X165644277Y-92907489D01*
X165757583Y-92987899D01*
X165895232Y-93010524D01*
X165948680Y-93004364D01*
X166043907Y-92957516D01*
X166110939Y-92866911D01*
X166139321Y-92749762D01*
X166136899Y-92694449D01*
X166095311Y-92567860D01*
X166011125Y-92488313D01*
X165885237Y-92456587D01*
X165862000Y-92456000D01*
X165729838Y-92480066D01*
G36*
X165862000Y-93091000D02*
G01*
X165665452Y-93091478D01*
X165523502Y-93098675D01*
X165427277Y-93121230D01*
X165367906Y-93167786D01*
X165336517Y-93246983D01*
X165324235Y-93367462D01*
X165322189Y-93537865D01*
X165322250Y-93616675D01*
X165322250Y-94043500D01*
X165544500Y-94043500D01*
X165544500Y-94996000D01*
X166179500Y-94996000D01*
X166179500Y-94043500D01*
X166401750Y-94043500D01*
X166401750Y-93616675D01*
X166401259Y-93425251D01*
X166393870Y-93287003D01*
X166370710Y-93193288D01*
X166322908Y-93135465D01*
X166241591Y-93104893D01*
X166117885Y-93092932D01*
X165942920Y-93090940D01*
X165862000Y-93091000D01*
G37*
X165862000Y-93091000D02*
X165665452Y-93091478D01*
X165523502Y-93098675D01*
X165427277Y-93121230D01*
X165367906Y-93167786D01*
X165336517Y-93246983D01*
X165324235Y-93367462D01*
X165322189Y-93537865D01*
X165322250Y-93616675D01*
X165322250Y-94043500D01*
X165544500Y-94043500D01*
X165544500Y-94996000D01*
X166179500Y-94996000D01*
X166179500Y-94043500D01*
X166401750Y-94043500D01*
X166401750Y-93616675D01*
X166401259Y-93425251D01*
X166393870Y-93287003D01*
X166370710Y-93193288D01*
X166322908Y-93135465D01*
X166241591Y-93104893D01*
X166117885Y-93092932D01*
X165942920Y-93090940D01*
X165862000Y-93091000D01*
G36*
X165605135Y-91776770D02*
G01*
X165365743Y-91812456D01*
X165220461Y-91849839D01*
X164928820Y-91975349D01*
X164658835Y-92154463D01*
X164418004Y-92378884D01*
X164213819Y-92640313D01*
X164053778Y-92930456D01*
X163945375Y-93241014D01*
X163938612Y-93268814D01*
X163907200Y-93478013D01*
X163898627Y-93721215D01*
X163911850Y-93973584D01*
X163945827Y-94210284D01*
X163984527Y-94363290D01*
X164109979Y-94654035D01*
X164290368Y-94924014D01*
X164518636Y-95166205D01*
X164787725Y-95373583D01*
X165090577Y-95539127D01*
X165219331Y-95591961D01*
X165396614Y-95640511D01*
X165612163Y-95672908D01*
X165843829Y-95688074D01*
X166069460Y-95684934D01*
X166266906Y-95662412D01*
X166338250Y-95646329D01*
X166662292Y-95526121D01*
X166960480Y-95353012D01*
X167226090Y-95133792D01*
X167452400Y-94875253D01*
X167632686Y-94584186D01*
X167760224Y-94267382D01*
X167782398Y-94187641D01*
X167814858Y-93997163D01*
X167828229Y-93774351D01*
X167826111Y-93689410D01*
X167465855Y-93689410D01*
X167445976Y-93981166D01*
X167370450Y-94265837D01*
X167239219Y-94536186D01*
X167052226Y-94784976D01*
X167007872Y-94831773D01*
X166801283Y-95016618D01*
X166588627Y-95152533D01*
X166349572Y-95252468D01*
X166344674Y-95254092D01*
X166243211Y-95282308D01*
X166135668Y-95299073D01*
X166003926Y-95306045D01*
X165829868Y-95304883D01*
X165798500Y-95304096D01*
X165636475Y-95298587D01*
X165519068Y-95289661D01*
X165427397Y-95273404D01*
X165342582Y-95245902D01*
X165245743Y-95203243D01*
X165195250Y-95179045D01*
X164961364Y-95042238D01*
X164746511Y-94871811D01*
X164568355Y-94682816D01*
X164497328Y-94584149D01*
X164369710Y-94328975D01*
X164291549Y-94046812D01*
X164262931Y-93750613D01*
X164283947Y-93453328D01*
X164354685Y-93167908D01*
X164475234Y-92907307D01*
X164485704Y-92890063D01*
X164673279Y-92642310D01*
X164895980Y-92441666D01*
X165146213Y-92289021D01*
X165416382Y-92185267D01*
X165698894Y-92131295D01*
X165986154Y-92127994D01*
X166270568Y-92176258D01*
X166544542Y-92276975D01*
X166800480Y-92431038D01*
X166990059Y-92596264D01*
X167192190Y-92843996D01*
X167338905Y-93113588D01*
X167430146Y-93397805D01*
X167465855Y-93689410D01*
X167826111Y-93689410D01*
X167822542Y-93546302D01*
X167797828Y-93340112D01*
X167781374Y-93264983D01*
X167663384Y-92929291D01*
X167495100Y-92625268D01*
X167281728Y-92358124D01*
X167028473Y-92133067D01*
X166740540Y-91955306D01*
X166423134Y-91830051D01*
X166320324Y-91802874D01*
X166107288Y-91770918D01*
X165860604Y-91762570D01*
X165605135Y-91776770D01*
G37*
X165605135Y-91776770D02*
X165365743Y-91812456D01*
X165220461Y-91849839D01*
X164928820Y-91975349D01*
X164658835Y-92154463D01*
X164418004Y-92378884D01*
X164213819Y-92640313D01*
X164053778Y-92930456D01*
X163945375Y-93241014D01*
X163938612Y-93268814D01*
X163907200Y-93478013D01*
X163898627Y-93721215D01*
X163911850Y-93973584D01*
X163945827Y-94210284D01*
X163984527Y-94363290D01*
X164109979Y-94654035D01*
X164290368Y-94924014D01*
X164518636Y-95166205D01*
X164787725Y-95373583D01*
X165090577Y-95539127D01*
X165219331Y-95591961D01*
X165396614Y-95640511D01*
X165612163Y-95672908D01*
X165843829Y-95688074D01*
X166069460Y-95684934D01*
X166266906Y-95662412D01*
X166338250Y-95646329D01*
X166662292Y-95526121D01*
X166960480Y-95353012D01*
X167226090Y-95133792D01*
X167452400Y-94875253D01*
X167632686Y-94584186D01*
X167760224Y-94267382D01*
X167782398Y-94187641D01*
X167814858Y-93997163D01*
X167828229Y-93774351D01*
X167826111Y-93689410D01*
X167465855Y-93689410D01*
X167445976Y-93981166D01*
X167370450Y-94265837D01*
X167239219Y-94536186D01*
X167052226Y-94784976D01*
X167007872Y-94831773D01*
X166801283Y-95016618D01*
X166588627Y-95152533D01*
X166349572Y-95252468D01*
X166344674Y-95254092D01*
X166243211Y-95282308D01*
X166135668Y-95299073D01*
X166003926Y-95306045D01*
X165829868Y-95304883D01*
X165798500Y-95304096D01*
X165636475Y-95298587D01*
X165519068Y-95289661D01*
X165427397Y-95273404D01*
X165342582Y-95245902D01*
X165245743Y-95203243D01*
X165195250Y-95179045D01*
X164961364Y-95042238D01*
X164746511Y-94871811D01*
X164568355Y-94682816D01*
X164497328Y-94584149D01*
X164369710Y-94328975D01*
X164291549Y-94046812D01*
X164262931Y-93750613D01*
X164283947Y-93453328D01*
X164354685Y-93167908D01*
X164475234Y-92907307D01*
X164485704Y-92890063D01*
X164673279Y-92642310D01*
X164895980Y-92441666D01*
X165146213Y-92289021D01*
X165416382Y-92185267D01*
X165698894Y-92131295D01*
X165986154Y-92127994D01*
X166270568Y-92176258D01*
X166544542Y-92276975D01*
X166800480Y-92431038D01*
X166990059Y-92596264D01*
X167192190Y-92843996D01*
X167338905Y-93113588D01*
X167430146Y-93397805D01*
X167465855Y-93689410D01*
X167826111Y-93689410D01*
X167822542Y-93546302D01*
X167797828Y-93340112D01*
X167781374Y-93264983D01*
X167663384Y-92929291D01*
X167495100Y-92625268D01*
X167281728Y-92358124D01*
X167028473Y-92133067D01*
X166740540Y-91955306D01*
X166423134Y-91830051D01*
X166320324Y-91802874D01*
X166107288Y-91770918D01*
X165860604Y-91762570D01*
X165605135Y-91776770D01*
G36*
X169925849Y-93135484D02*
G01*
X169840755Y-93156519D01*
X169767297Y-93195808D01*
X169687105Y-93254887D01*
X169618506Y-93318101D01*
X169579829Y-93369794D01*
X169576750Y-93382044D01*
X169602459Y-93410369D01*
X169667287Y-93452392D01*
X169702368Y-93471294D01*
X169827985Y-93535379D01*
X169910847Y-93452516D01*
X169981747Y-93396250D01*
X170052233Y-93383688D01*
X170094367Y-93389785D01*
X170195276Y-93424184D01*
X170257269Y-93486945D01*
X170290715Y-93591712D01*
X170299563Y-93659761D01*
X170296540Y-93828548D01*
X170252122Y-93954604D01*
X170167747Y-94034288D01*
X170147867Y-94043658D01*
X170028166Y-94064169D01*
X169918421Y-94022080D01*
X169862862Y-93973073D01*
X169813189Y-93930589D01*
X169762312Y-93927414D01*
X169704504Y-93947937D01*
X169632652Y-93983280D01*
X169591376Y-94013903D01*
X169590476Y-94015227D01*
X169590500Y-94070904D01*
X169639596Y-94141886D01*
X169728994Y-94217277D01*
X169778561Y-94248878D01*
X169926503Y-94306355D01*
X170098491Y-94329316D01*
X170265376Y-94315435D01*
X170338734Y-94293580D01*
X170479594Y-94206486D01*
X170582200Y-94080838D01*
X170646658Y-93928660D01*
X170673074Y-93761975D01*
X170661554Y-93592807D01*
X170612202Y-93433179D01*
X170525124Y-93295116D01*
X170400427Y-93190641D01*
X170328746Y-93156519D01*
X170212146Y-93131110D01*
X170067077Y-93124098D01*
X169925849Y-93135484D01*
G37*
X169925849Y-93135484D02*
X169840755Y-93156519D01*
X169767297Y-93195808D01*
X169687105Y-93254887D01*
X169618506Y-93318101D01*
X169579829Y-93369794D01*
X169576750Y-93382044D01*
X169602459Y-93410369D01*
X169667287Y-93452392D01*
X169702368Y-93471294D01*
X169827985Y-93535379D01*
X169910847Y-93452516D01*
X169981747Y-93396250D01*
X170052233Y-93383688D01*
X170094367Y-93389785D01*
X170195276Y-93424184D01*
X170257269Y-93486945D01*
X170290715Y-93591712D01*
X170299563Y-93659761D01*
X170296540Y-93828548D01*
X170252122Y-93954604D01*
X170167747Y-94034288D01*
X170147867Y-94043658D01*
X170028166Y-94064169D01*
X169918421Y-94022080D01*
X169862862Y-93973073D01*
X169813189Y-93930589D01*
X169762312Y-93927414D01*
X169704504Y-93947937D01*
X169632652Y-93983280D01*
X169591376Y-94013903D01*
X169590476Y-94015227D01*
X169590500Y-94070904D01*
X169639596Y-94141886D01*
X169728994Y-94217277D01*
X169778561Y-94248878D01*
X169926503Y-94306355D01*
X170098491Y-94329316D01*
X170265376Y-94315435D01*
X170338734Y-94293580D01*
X170479594Y-94206486D01*
X170582200Y-94080838D01*
X170646658Y-93928660D01*
X170673074Y-93761975D01*
X170661554Y-93592807D01*
X170612202Y-93433179D01*
X170525124Y-93295116D01*
X170400427Y-93190641D01*
X170328746Y-93156519D01*
X170212146Y-93131110D01*
X170067077Y-93124098D01*
X169925849Y-93135484D01*
G36*
X171048583Y-93141161D02*
G01*
X170964793Y-93166283D01*
X170882805Y-93212802D01*
X170806005Y-93274788D01*
X170749099Y-93337733D01*
X170726793Y-93387132D01*
X170729670Y-93398212D01*
X170766395Y-93428947D01*
X170836497Y-93472140D01*
X170855809Y-93482681D01*
X170965375Y-93540988D01*
X171047495Y-93458869D01*
X171145206Y-93393305D01*
X171240977Y-93383910D01*
X171326744Y-93423650D01*
X171394443Y-93505489D01*
X171436009Y-93622393D01*
X171443381Y-93767327D01*
X171439773Y-93801089D01*
X171399288Y-93926407D01*
X171324678Y-94014745D01*
X171229033Y-94060980D01*
X171125442Y-94059990D01*
X171026993Y-94006653D01*
X170996183Y-93974682D01*
X170955149Y-93931838D01*
X170915987Y-93923579D01*
X170852817Y-93947373D01*
X170829495Y-93958389D01*
X170749584Y-94003370D01*
X170725252Y-94046334D01*
X170751915Y-94105574D01*
X170782387Y-94146315D01*
X170891608Y-94238645D01*
X171039678Y-94300895D01*
X171207710Y-94329423D01*
X171376816Y-94320584D01*
X171499200Y-94284590D01*
X171632198Y-94195039D01*
X171728193Y-94066725D01*
X171787237Y-93912165D01*
X171809383Y-93743878D01*
X171794685Y-93574380D01*
X171743195Y-93416189D01*
X171654966Y-93281823D01*
X171530053Y-93183800D01*
X171494460Y-93167006D01*
X171360800Y-93133338D01*
X171201726Y-93124709D01*
X171048583Y-93141161D01*
G37*
X171048583Y-93141161D02*
X170964793Y-93166283D01*
X170882805Y-93212802D01*
X170806005Y-93274788D01*
X170749099Y-93337733D01*
X170726793Y-93387132D01*
X170729670Y-93398212D01*
X170766395Y-93428947D01*
X170836497Y-93472140D01*
X170855809Y-93482681D01*
X170965375Y-93540988D01*
X171047495Y-93458869D01*
X171145206Y-93393305D01*
X171240977Y-93383910D01*
X171326744Y-93423650D01*
X171394443Y-93505489D01*
X171436009Y-93622393D01*
X171443381Y-93767327D01*
X171439773Y-93801089D01*
X171399288Y-93926407D01*
X171324678Y-94014745D01*
X171229033Y-94060980D01*
X171125442Y-94059990D01*
X171026993Y-94006653D01*
X170996183Y-93974682D01*
X170955149Y-93931838D01*
X170915987Y-93923579D01*
X170852817Y-93947373D01*
X170829495Y-93958389D01*
X170749584Y-94003370D01*
X170725252Y-94046334D01*
X170751915Y-94105574D01*
X170782387Y-94146315D01*
X170891608Y-94238645D01*
X171039678Y-94300895D01*
X171207710Y-94329423D01*
X171376816Y-94320584D01*
X171499200Y-94284590D01*
X171632198Y-94195039D01*
X171728193Y-94066725D01*
X171787237Y-93912165D01*
X171809383Y-93743878D01*
X171794685Y-93574380D01*
X171743195Y-93416189D01*
X171654966Y-93281823D01*
X171530053Y-93183800D01*
X171494460Y-93167006D01*
X171360800Y-93133338D01*
X171201726Y-93124709D01*
X171048583Y-93141161D01*
G36*
X170237091Y-91804261D02*
G01*
X169912876Y-91904708D01*
X169817676Y-91946965D01*
X169547148Y-92109401D01*
X169299319Y-92322114D01*
X169084762Y-92573050D01*
X168914049Y-92850152D01*
X168812834Y-93092595D01*
X168778103Y-93208974D01*
X168755345Y-93317438D01*
X168742218Y-93437136D01*
X168736380Y-93587214D01*
X168735375Y-93726000D01*
X168737431Y-93910747D01*
X168745133Y-94051108D01*
X168760784Y-94166109D01*
X168786688Y-94274775D01*
X168811586Y-94355525D01*
X168942545Y-94656251D01*
X169126992Y-94933141D01*
X169356975Y-95178398D01*
X169624542Y-95384223D01*
X169921738Y-95542820D01*
X170084750Y-95603845D01*
X170309820Y-95655937D01*
X170566830Y-95682613D01*
X170830547Y-95683225D01*
X171075737Y-95657125D01*
X171189596Y-95632227D01*
X171449999Y-95544453D01*
X171679972Y-95426216D01*
X171897575Y-95266748D01*
X172069576Y-95107575D01*
X172265801Y-94890695D01*
X172412721Y-94676850D01*
X172520931Y-94447999D01*
X172593780Y-94215076D01*
X172647849Y-93879309D01*
X172645827Y-93710125D01*
X172283819Y-93710125D01*
X172256227Y-94027140D01*
X172168818Y-94323347D01*
X172022359Y-94596957D01*
X171817618Y-94846183D01*
X171780798Y-94882436D01*
X171649604Y-94989536D01*
X171486188Y-95096091D01*
X171312669Y-95189594D01*
X171151169Y-95257534D01*
X171080825Y-95278249D01*
X170951420Y-95297492D01*
X170784268Y-95307213D01*
X170604410Y-95307385D01*
X170436887Y-95297983D01*
X170307000Y-95279042D01*
X170070141Y-95197979D01*
X169831951Y-95069179D01*
X169610187Y-94905120D01*
X169422608Y-94718282D01*
X169327589Y-94590790D01*
X169191770Y-94323023D01*
X169111950Y-94038111D01*
X169086209Y-93744774D01*
X169112627Y-93451736D01*
X169189284Y-93167718D01*
X169314260Y-92901441D01*
X169485635Y-92661627D01*
X169701489Y-92456998D01*
X169814875Y-92377284D01*
X170028894Y-92259354D01*
X170243787Y-92182421D01*
X170467190Y-92138295D01*
X170775397Y-92124677D01*
X171070917Y-92169039D01*
X171347782Y-92266216D01*
X171600024Y-92411043D01*
X171821674Y-92598358D01*
X172006763Y-92822995D01*
X172149324Y-93079791D01*
X172243387Y-93363580D01*
X172282984Y-93669200D01*
X172283819Y-93710125D01*
X172645827Y-93710125D01*
X172643733Y-93535032D01*
X172582957Y-93195349D01*
X172467043Y-92873363D01*
X172428646Y-92795282D01*
X172327148Y-92636597D01*
X172185916Y-92464196D01*
X172020104Y-92292975D01*
X171844866Y-92137830D01*
X171675359Y-92013656D01*
X171575321Y-91956554D01*
X171257619Y-91835495D01*
X170920993Y-91769717D01*
X170576974Y-91759285D01*
X170237091Y-91804261D01*
G37*
X170237091Y-91804261D02*
X169912876Y-91904708D01*
X169817676Y-91946965D01*
X169547148Y-92109401D01*
X169299319Y-92322114D01*
X169084762Y-92573050D01*
X168914049Y-92850152D01*
X168812834Y-93092595D01*
X168778103Y-93208974D01*
X168755345Y-93317438D01*
X168742218Y-93437136D01*
X168736380Y-93587214D01*
X168735375Y-93726000D01*
X168737431Y-93910747D01*
X168745133Y-94051108D01*
X168760784Y-94166109D01*
X168786688Y-94274775D01*
X168811586Y-94355525D01*
X168942545Y-94656251D01*
X169126992Y-94933141D01*
X169356975Y-95178398D01*
X169624542Y-95384223D01*
X169921738Y-95542820D01*
X170084750Y-95603845D01*
X170309820Y-95655937D01*
X170566830Y-95682613D01*
X170830547Y-95683225D01*
X171075737Y-95657125D01*
X171189596Y-95632227D01*
X171449999Y-95544453D01*
X171679972Y-95426216D01*
X171897575Y-95266748D01*
X172069576Y-95107575D01*
X172265801Y-94890695D01*
X172412721Y-94676850D01*
X172520931Y-94447999D01*
X172593780Y-94215076D01*
X172647849Y-93879309D01*
X172645827Y-93710125D01*
X172283819Y-93710125D01*
X172256227Y-94027140D01*
X172168818Y-94323347D01*
X172022359Y-94596957D01*
X171817618Y-94846183D01*
X171780798Y-94882436D01*
X171649604Y-94989536D01*
X171486188Y-95096091D01*
X171312669Y-95189594D01*
X171151169Y-95257534D01*
X171080825Y-95278249D01*
X170951420Y-95297492D01*
X170784268Y-95307213D01*
X170604410Y-95307385D01*
X170436887Y-95297983D01*
X170307000Y-95279042D01*
X170070141Y-95197979D01*
X169831951Y-95069179D01*
X169610187Y-94905120D01*
X169422608Y-94718282D01*
X169327589Y-94590790D01*
X169191770Y-94323023D01*
X169111950Y-94038111D01*
X169086209Y-93744774D01*
X169112627Y-93451736D01*
X169189284Y-93167718D01*
X169314260Y-92901441D01*
X169485635Y-92661627D01*
X169701489Y-92456998D01*
X169814875Y-92377284D01*
X170028894Y-92259354D01*
X170243787Y-92182421D01*
X170467190Y-92138295D01*
X170775397Y-92124677D01*
X171070917Y-92169039D01*
X171347782Y-92266216D01*
X171600024Y-92411043D01*
X171821674Y-92598358D01*
X172006763Y-92822995D01*
X172149324Y-93079791D01*
X172243387Y-93363580D01*
X172282984Y-93669200D01*
X172283819Y-93710125D01*
X172645827Y-93710125D01*
X172643733Y-93535032D01*
X172582957Y-93195349D01*
X172467043Y-92873363D01*
X172428646Y-92795282D01*
X172327148Y-92636597D01*
X172185916Y-92464196D01*
X172020104Y-92292975D01*
X171844866Y-92137830D01*
X171675359Y-92013656D01*
X171575321Y-91956554D01*
X171257619Y-91835495D01*
X170920993Y-91769717D01*
X170576974Y-91759285D01*
X170237091Y-91804261D01*
D12*
X137150600Y-96339200D02*
X137150600Y-99139200D01*
X137150600Y-99139200D02*
X139150600Y-99139200D01*
X139150600Y-99139200D02*
X139150600Y-96339200D01*
X139150600Y-96339200D02*
X137150600Y-96339200D01*
D10*
X140231523Y-94956380D02*
X139898190Y-95956380D01*
X139564857Y-94956380D01*
X139231523Y-94956380D02*
X139231523Y-95765904D01*
X139183904Y-95861142D01*
X139136285Y-95908761D01*
X139041047Y-95956380D01*
X138850571Y-95956380D01*
X138755333Y-95908761D01*
X138707714Y-95861142D01*
X138660095Y-95765904D01*
X138660095Y-94956380D01*
X138231523Y-95908761D02*
X138088666Y-95956380D01*
X137850571Y-95956380D01*
X137755333Y-95908761D01*
X137707714Y-95861142D01*
X137660095Y-95765904D01*
X137660095Y-95670666D01*
X137707714Y-95575428D01*
X137755333Y-95527809D01*
X137850571Y-95480190D01*
X138041047Y-95432571D01*
X138136285Y-95384952D01*
X138183904Y-95337333D01*
X138231523Y-95242095D01*
X138231523Y-95146857D01*
X138183904Y-95051619D01*
X138136285Y-95004000D01*
X138041047Y-94956380D01*
X137802952Y-94956380D01*
X137660095Y-95004000D01*
X136898190Y-95432571D02*
X136755333Y-95480190D01*
X136707714Y-95527809D01*
X136660095Y-95623047D01*
X136660095Y-95765904D01*
X136707714Y-95861142D01*
X136755333Y-95908761D01*
X136850571Y-95956380D01*
X137231523Y-95956380D01*
X137231523Y-94956380D01*
X136898190Y-94956380D01*
X136802952Y-95004000D01*
X136755333Y-95051619D01*
X136707714Y-95146857D01*
X136707714Y-95242095D01*
X136755333Y-95337333D01*
X136802952Y-95384952D01*
X136898190Y-95432571D01*
X137231523Y-95432571D01*
X135707714Y-95956380D02*
X136279142Y-95956380D01*
X135993428Y-95956380D02*
X135993428Y-94956380D01*
X136088666Y-95099238D01*
X136183904Y-95194476D01*
X136279142Y-95242095D01*
M02*
