M48
INCH,TZ
T1C0.0079
T2C0.0118
T3C0.0157
T4C0.0256
T5C0.0394
%
G90
G05
T1
X42920Y-38980
X43936Y-38090
X43950Y-37380
X44010Y-36430
X44260Y-36594
X44260Y-36890
X45140Y-36850
X45520Y-36650
X45620Y-35560
X45780Y-38959
X45970Y-36874
X46102Y-38930
X46260Y-36733
X46480Y-39200
X46580Y-34820
X46860Y-36780
X47280Y-34790
X47360Y-35810
X47699Y-38817
X47909Y-38671
X48030Y-36993
X48030Y-37290
X48130Y-36400
X48720Y-35290
X49049Y-38470
X49107Y-35665
X49107Y-36059
X49307Y-38478
X49311Y-36294
X49388Y-36538
X49464Y-37656
X49680Y-38490
X49775Y-37425
X49945Y-38495
X49987Y-35927
X50059Y-37501
X50200Y-38530
X50230Y-35847
X50302Y-37678
X50486Y-35847
X50560Y-36314
X50625Y-37665
X50741Y-36133
X50742Y-35847
X50820Y-36924
X50899Y-37656
X50960Y-36000
X51090Y-35660
X51143Y-37544
X51151Y-36492
X51211Y-35885
X51212Y-36872
X51364Y-37673
X51373Y-36625
X51464Y-35847
X51672Y-38046
X51700Y-38777
X51812Y-34705
X51820Y-35180
X52047Y-34587
X52290Y-37630
X52401Y-35426
X52410Y-36830
X52476Y-37443
X52485Y-35668
X52547Y-37916
X52630Y-35239
X53259Y-35936
X54530Y-37707
X54894Y-37146
X55407Y-36897
X56822Y-37244
X56992Y-37448
X57530Y-34440
X57638Y-39173
X57677Y-36335
X57894Y-37403
X58543Y-37007
X59004Y-36936
X59280Y-34480
X59717Y-36400
X60160Y-34400
X61600Y-37650
X61800Y-35927
X61800Y-37950
X62300Y-36045
X62300Y-37950
X62456Y-37404
X62736Y-35986
X62750Y-37950
X62809Y-37591
X63015Y-35972
X63113Y-37840
X63200Y-34587
X63300Y-35850
X63320Y-37040
X63753Y-38487
X63941Y-38676
X64140Y-38880
X64480Y-37160
X64560Y-37640
X64620Y-35827
X64640Y-38480
X64727Y-34850
X64821Y-38661
X65020Y-38860
X65040Y-36500
X65140Y-37700
X65500Y-36140
X65560Y-36620
X66640Y-37920
X67140Y-37920
X68020Y-36080
X68207Y-36280
X68660Y-35820
T2
X47639Y-34765
X48771Y-34766
X53269Y-34378
X53583Y-39134
X54370Y-36260
X55551Y-37874
X55830Y-34504
X56240Y-36906
X56435Y-39112
X57340Y-38960
X59500Y-36650
X62000Y-36763
X62983Y-36763
X63306Y-36606
X66650Y-37100
X67040Y-36720
T3
X55354Y-39094
T4
X45570Y-37820
X45570Y-38320
X46070Y-37820
X46070Y-38320
X46570Y-37820
X46570Y-38320
X47070Y-37820
X47070Y-38320
X47570Y-37820
X47570Y-38320
T5
X43390Y-33860
X44390Y-33860
X45390Y-33860
X46390Y-33860
X47390Y-33860
X48390Y-33860
X49390Y-33860
X50390Y-33860
X51390Y-33860
X52390Y-33860
X53390Y-33860
X54390Y-33860
X55390Y-33860
X56390Y-33860
X57390Y-33860
X59390Y-33860
X60390Y-33860
X61390Y-33860
X62390Y-33860
X63390Y-33860
X64390Y-33860
X65390Y-33860
X66390Y-33860
X67390Y-33860
X68390Y-33860
X69390Y-33860
X59390Y-39860
X60390Y-39860
X61390Y-39860
X62390Y-39860
X63390Y-39860
X64390Y-39860
X65390Y-39860
X66390Y-39860
X67390Y-39860
X68390Y-39860
X69390Y-39860
X43390Y-39860
X44390Y-39860
X45390Y-39860
X46390Y-39860
X47390Y-39860
X48390Y-39860
X49390Y-39860
X50390Y-39860
X51390Y-39860
X52390Y-39860
X53390Y-39860
X54390Y-39860
X55390Y-39860
X56390Y-39860
X57390Y-39860
T0
M30
