G04 #@! TF.GenerationSoftware,KiCad,Pcbnew,5.1.5*
G04 #@! TF.CreationDate,2020-09-28T17:56:33-04:00*
G04 #@! TF.ProjectId,NanoX,4e616e6f-582e-46b6-9963-61645f706362,rev?*
G04 #@! TF.SameCoordinates,Original*
G04 #@! TF.FileFunction,Legend,Top*
G04 #@! TF.FilePolarity,Positive*
%FSLAX46Y46*%
G04 Gerber Fmt 4.6, Leading zero omitted, Abs format (unit mm)*
G04 Created by KiCad (PCBNEW 5.1.5) date 2020-09-28 17:56:33*
%MOMM*%
%LPD*%
G04 APERTURE LIST*
%ADD10C,0.150000*%
%ADD11C,0.120000*%
%ADD12C,0.100000*%
G04 APERTURE END LIST*
D10*
X116052571Y-99421904D02*
X115595428Y-99421904D01*
X115824000Y-99421904D02*
X115824000Y-98621904D01*
X115747809Y-98736190D01*
X115671619Y-98812380D01*
X115595428Y-98850476D01*
D11*
X134857600Y-92974600D02*
X136617600Y-92974600D01*
X136617600Y-89904600D02*
X134187600Y-89904600D01*
D10*
X143205200Y-95496600D02*
X144705200Y-95496600D01*
X141705200Y-97746600D02*
X144705200Y-97746600D01*
D11*
X153242000Y-88726000D02*
X163242000Y-88726000D01*
X153242000Y-98726000D02*
X153242000Y-88726000D01*
X163242000Y-98726000D02*
X153242000Y-98726000D01*
X163242000Y-88726000D02*
X163242000Y-98726000D01*
X149520600Y-87334400D02*
X149520600Y-86004400D01*
X150850600Y-87334400D02*
X149520600Y-87334400D01*
X152120600Y-87334400D02*
X152120600Y-84674400D01*
X152120600Y-84674400D02*
X177580600Y-84674400D01*
X152120600Y-87334400D02*
X177580600Y-87334400D01*
X177580600Y-87334400D02*
X177580600Y-84674400D01*
X176831000Y-98726000D02*
X166831000Y-98726000D01*
X176831000Y-88726000D02*
X176831000Y-98726000D01*
X166831000Y-88726000D02*
X176831000Y-88726000D01*
X166831000Y-98726000D02*
X166831000Y-88726000D01*
X149520600Y-99914400D02*
X149520600Y-102574400D01*
X174980600Y-99914400D02*
X149520600Y-99914400D01*
X174980600Y-102574400D02*
X149520600Y-102574400D01*
X174980600Y-99914400D02*
X174980600Y-102574400D01*
X176250600Y-99914400D02*
X177580600Y-99914400D01*
X177580600Y-99914400D02*
X177580600Y-101244400D01*
X115080000Y-91773000D02*
X115080000Y-89373000D01*
X111980000Y-89373000D02*
X111980000Y-92323000D01*
D12*
X131347800Y-89739600D02*
X131347800Y-89239600D01*
X131347800Y-89239600D02*
X130847800Y-89239600D01*
X124147800Y-89739600D02*
X124147800Y-89239600D01*
X124147800Y-89239600D02*
X124647800Y-89239600D01*
X124647800Y-96439600D02*
X124147800Y-96439600D01*
X124147800Y-96439600D02*
X124147800Y-95939600D01*
X130847800Y-96439600D02*
X131347800Y-95939600D01*
X131347800Y-95939600D02*
X131347800Y-95839600D01*
X131347800Y-95839600D02*
X131847800Y-95839600D01*
D11*
X118180400Y-90084200D02*
X118180400Y-91084200D01*
X116820400Y-91084200D02*
X116820400Y-90084200D01*
X108880600Y-84674400D02*
X108880600Y-87334400D01*
X144500600Y-84674400D02*
X108880600Y-84674400D01*
X144500600Y-87334400D02*
X108880600Y-87334400D01*
X144500600Y-84674400D02*
X144500600Y-87334400D01*
X145770600Y-84674400D02*
X147100600Y-84674400D01*
X147100600Y-84674400D02*
X147100600Y-86004400D01*
X122094400Y-91228000D02*
X119494400Y-91228000D01*
X122094400Y-90128000D02*
X119494400Y-90128000D01*
X122094400Y-91228000D02*
X122094400Y-90128000D01*
X119893600Y-88579400D02*
X120593600Y-88579400D01*
X120593600Y-89779400D02*
X119893600Y-89779400D01*
X124164800Y-99152000D02*
X123464800Y-99152000D01*
X123464800Y-97952000D02*
X124164800Y-97952000D01*
X140344400Y-92840000D02*
X138344400Y-92840000D01*
X140344400Y-90040000D02*
X140344400Y-92840000D01*
X138344400Y-90040000D02*
X140344400Y-90040000D01*
X138344400Y-92840000D02*
X138344400Y-90040000D01*
X142826800Y-89117000D02*
X142926800Y-89117000D01*
X146326800Y-89117000D02*
X146226800Y-89117000D01*
X146226800Y-94017000D02*
X146326800Y-94017000D01*
X142826800Y-94017000D02*
X142926800Y-94017000D01*
X144226800Y-94017000D02*
X144926800Y-94017000D01*
X144226800Y-89117000D02*
X144926800Y-89117000D01*
X142826800Y-89117000D02*
X142826800Y-94017000D01*
X146326800Y-94017000D02*
X146326800Y-89117000D01*
X120802200Y-92831200D02*
X119802200Y-92831200D01*
X119802200Y-91471200D02*
X120802200Y-91471200D01*
X135245400Y-88042200D02*
X136245400Y-88042200D01*
X136245400Y-89402200D02*
X135245400Y-89402200D01*
X136194600Y-94736200D02*
X135194600Y-94736200D01*
X135194600Y-93376200D02*
X136194600Y-93376200D01*
X116681800Y-90094000D02*
X116681800Y-91094000D01*
X115321800Y-91094000D02*
X115321800Y-90094000D01*
X148431800Y-96662800D02*
X148431800Y-97662800D01*
X147071800Y-97662800D02*
X147071800Y-96662800D01*
X113162800Y-97197800D02*
X113162800Y-96197800D01*
X114522800Y-96197800D02*
X114522800Y-97197800D01*
X136683200Y-97698000D02*
X136683200Y-96698000D01*
X138043200Y-96698000D02*
X138043200Y-97698000D01*
X147100600Y-102574400D02*
X147100600Y-99914400D01*
X111480600Y-102574400D02*
X147100600Y-102574400D01*
X111480600Y-99914400D02*
X147100600Y-99914400D01*
X111480600Y-102574400D02*
X111480600Y-99914400D01*
X110210600Y-102574400D02*
X108880600Y-102574400D01*
X108880600Y-102574400D02*
X108880600Y-101244400D01*
X114987800Y-98462800D02*
X114987800Y-97332800D01*
X115747800Y-98462800D02*
X114987800Y-98462800D01*
X115052800Y-95755270D02*
X115052800Y-94932800D01*
X115052800Y-96572800D02*
X115052800Y-96370330D01*
X115184329Y-96572800D02*
X115052800Y-96572800D01*
X116454329Y-96572800D02*
X116311271Y-96572800D01*
X116507800Y-96769329D02*
X116507800Y-96626271D01*
X116507800Y-98462800D02*
X116507800Y-97896271D01*
X115052800Y-94932800D02*
X121522800Y-94932800D01*
X116507800Y-98462800D02*
X121522800Y-98462800D01*
X121522800Y-97025270D02*
X121522800Y-96370330D01*
X121522800Y-95755270D02*
X121522800Y-94932800D01*
X121522800Y-98462800D02*
X121522800Y-97640330D01*
D12*
X109423000Y-97699800D02*
X108923000Y-97699800D01*
X111173000Y-95299800D02*
X111173000Y-95599800D01*
X109423000Y-89599800D02*
X108973000Y-89599800D01*
X111173000Y-91749800D02*
X111173000Y-92049800D01*
X106223000Y-89599800D02*
X105423000Y-89599800D01*
X105423000Y-89599800D02*
X105423000Y-90099800D01*
X105423000Y-97249800D02*
X105423000Y-97699800D01*
X105423000Y-97699800D02*
X106273000Y-97699800D01*
D11*
X148301800Y-91189400D02*
X147201800Y-91189400D01*
X147201800Y-91189400D02*
X147201800Y-93789400D01*
X148301800Y-91189400D02*
X148301800Y-93789400D01*
X138291800Y-98392400D02*
X139431800Y-98392400D01*
X139431800Y-98392400D02*
X139431800Y-96292400D01*
X138291800Y-98392400D02*
X138291800Y-96292400D01*
X130739400Y-97952000D02*
X131439400Y-97952000D01*
X131439400Y-99152000D02*
X130739400Y-99152000D01*
X127807200Y-99152000D02*
X127107200Y-99152000D01*
X127107200Y-97952000D02*
X127807200Y-97952000D01*
X135143800Y-96830400D02*
X135143800Y-97530400D01*
X133943800Y-97530400D02*
X133943800Y-96830400D01*
X136464600Y-96830000D02*
X136464600Y-97530000D01*
X135264600Y-97530000D02*
X135264600Y-96830000D01*
X142001800Y-91968800D02*
X142001800Y-92668800D01*
X140801800Y-92668800D02*
X140801800Y-91968800D01*
X146802400Y-96789800D02*
X146802400Y-97489800D01*
X145602400Y-97489800D02*
X145602400Y-96789800D01*
X143733000Y-99253600D02*
X143033000Y-99253600D01*
X143033000Y-98053600D02*
X143733000Y-98053600D01*
X113045800Y-96297000D02*
X113045800Y-96997000D01*
X111845800Y-96997000D02*
X111845800Y-96297000D01*
X140960400Y-96794800D02*
X140960400Y-97494800D01*
X139760400Y-97494800D02*
X139760400Y-96794800D01*
D10*
X147409066Y-105049580D02*
X147075733Y-104573390D01*
X146837638Y-105049580D02*
X146837638Y-104049580D01*
X147218590Y-104049580D01*
X147313828Y-104097200D01*
X147361447Y-104144819D01*
X147409066Y-104240057D01*
X147409066Y-104382914D01*
X147361447Y-104478152D01*
X147313828Y-104525771D01*
X147218590Y-104573390D01*
X146837638Y-104573390D01*
X147837638Y-104525771D02*
X148170971Y-104525771D01*
X148313828Y-105049580D02*
X147837638Y-105049580D01*
X147837638Y-104049580D01*
X148313828Y-104049580D01*
X149075733Y-104525771D02*
X148742400Y-104525771D01*
X148742400Y-105049580D02*
X148742400Y-104049580D01*
X149218590Y-104049580D01*
X149742400Y-104049580D02*
X149742400Y-104287676D01*
X149504304Y-104192438D02*
X149742400Y-104287676D01*
X149980495Y-104192438D01*
X149599542Y-104478152D02*
X149742400Y-104287676D01*
X149885257Y-104478152D01*
X150504304Y-104049580D02*
X150504304Y-104287676D01*
X150266209Y-104192438D02*
X150504304Y-104287676D01*
X150742400Y-104192438D01*
X150361447Y-104478152D02*
X150504304Y-104287676D01*
X150647161Y-104478152D01*
X147002666Y-83256380D02*
X146669333Y-82780190D01*
X146431238Y-83256380D02*
X146431238Y-82256380D01*
X146812190Y-82256380D01*
X146907428Y-82304000D01*
X146955047Y-82351619D01*
X147002666Y-82446857D01*
X147002666Y-82589714D01*
X146955047Y-82684952D01*
X146907428Y-82732571D01*
X146812190Y-82780190D01*
X146431238Y-82780190D01*
X147431238Y-82732571D02*
X147764571Y-82732571D01*
X147907428Y-83256380D02*
X147431238Y-83256380D01*
X147431238Y-82256380D01*
X147907428Y-82256380D01*
X148669333Y-82732571D02*
X148336000Y-82732571D01*
X148336000Y-83256380D02*
X148336000Y-82256380D01*
X148812190Y-82256380D01*
X149336000Y-82256380D02*
X149336000Y-82494476D01*
X149097904Y-82399238D02*
X149336000Y-82494476D01*
X149574095Y-82399238D01*
X149193142Y-82684952D02*
X149336000Y-82494476D01*
X149478857Y-82684952D01*
X150097904Y-82256380D02*
X150097904Y-82494476D01*
X149859809Y-82399238D02*
X150097904Y-82494476D01*
X150336000Y-82399238D01*
X149955047Y-82684952D02*
X150097904Y-82494476D01*
X150240761Y-82684952D01*
X134975695Y-88416980D02*
X134975695Y-89226504D01*
X135023314Y-89321742D01*
X135070933Y-89369361D01*
X135166171Y-89416980D01*
X135356647Y-89416980D01*
X135451885Y-89369361D01*
X135499504Y-89321742D01*
X135547123Y-89226504D01*
X135547123Y-88416980D01*
X135928076Y-88416980D02*
X136547123Y-88416980D01*
X136213790Y-88797933D01*
X136356647Y-88797933D01*
X136451885Y-88845552D01*
X136499504Y-88893171D01*
X136547123Y-88988409D01*
X136547123Y-89226504D01*
X136499504Y-89321742D01*
X136451885Y-89369361D01*
X136356647Y-89416980D01*
X136070933Y-89416980D01*
X135975695Y-89369361D01*
X135928076Y-89321742D01*
X142443295Y-94023980D02*
X142443295Y-94833504D01*
X142490914Y-94928742D01*
X142538533Y-94976361D01*
X142633771Y-95023980D01*
X142824247Y-95023980D01*
X142919485Y-94976361D01*
X142967104Y-94928742D01*
X143014723Y-94833504D01*
X143014723Y-94023980D01*
X143443295Y-94119219D02*
X143490914Y-94071600D01*
X143586152Y-94023980D01*
X143824247Y-94023980D01*
X143919485Y-94071600D01*
X143967104Y-94119219D01*
X144014723Y-94214457D01*
X144014723Y-94309695D01*
X143967104Y-94452552D01*
X143395676Y-95023980D01*
X144014723Y-95023980D01*
X157567380Y-94964095D02*
X158376904Y-94964095D01*
X158472142Y-94916476D01*
X158519761Y-94868857D01*
X158567380Y-94773619D01*
X158567380Y-94583142D01*
X158519761Y-94487904D01*
X158472142Y-94440285D01*
X158376904Y-94392666D01*
X157567380Y-94392666D01*
X157567380Y-94011714D02*
X158567380Y-93345047D01*
X157567380Y-93345047D02*
X158567380Y-94011714D01*
X158567380Y-92440285D02*
X158567380Y-93011714D01*
X158567380Y-92726000D02*
X157567380Y-92726000D01*
X157710238Y-92821238D01*
X157805476Y-92916476D01*
X157853095Y-93011714D01*
X147972980Y-86337733D02*
X148687266Y-86337733D01*
X148830123Y-86385352D01*
X148925361Y-86480590D01*
X148972980Y-86623447D01*
X148972980Y-86718685D01*
X147972980Y-85385352D02*
X147972980Y-85861542D01*
X148449171Y-85909161D01*
X148401552Y-85861542D01*
X148353933Y-85766304D01*
X148353933Y-85528209D01*
X148401552Y-85432971D01*
X148449171Y-85385352D01*
X148544409Y-85337733D01*
X148782504Y-85337733D01*
X148877742Y-85385352D01*
X148925361Y-85432971D01*
X148972980Y-85528209D01*
X148972980Y-85766304D01*
X148925361Y-85861542D01*
X148877742Y-85909161D01*
X171410380Y-94964095D02*
X172219904Y-94964095D01*
X172315142Y-94916476D01*
X172362761Y-94868857D01*
X172410380Y-94773619D01*
X172410380Y-94583142D01*
X172362761Y-94487904D01*
X172315142Y-94440285D01*
X172219904Y-94392666D01*
X171410380Y-94392666D01*
X171410380Y-94011714D02*
X172410380Y-93345047D01*
X171410380Y-93345047D02*
X172410380Y-94011714D01*
X171505619Y-93011714D02*
X171458000Y-92964095D01*
X171410380Y-92868857D01*
X171410380Y-92630761D01*
X171458000Y-92535523D01*
X171505619Y-92487904D01*
X171600857Y-92440285D01*
X171696095Y-92440285D01*
X171838952Y-92487904D01*
X172410380Y-93059333D01*
X172410380Y-92440285D01*
X178032980Y-101577733D02*
X178747266Y-101577733D01*
X178890123Y-101625352D01*
X178985361Y-101720590D01*
X179032980Y-101863447D01*
X179032980Y-101958685D01*
X178032980Y-101196780D02*
X178032980Y-100577733D01*
X178413933Y-100911066D01*
X178413933Y-100768209D01*
X178461552Y-100672971D01*
X178509171Y-100625352D01*
X178604409Y-100577733D01*
X178842504Y-100577733D01*
X178937742Y-100625352D01*
X178985361Y-100672971D01*
X179032980Y-100768209D01*
X179032980Y-101053923D01*
X178985361Y-101149161D01*
X178937742Y-101196780D01*
X112901504Y-93771980D02*
X112901504Y-92771980D01*
X113139600Y-92771980D01*
X113282457Y-92819600D01*
X113377695Y-92914838D01*
X113425314Y-93010076D01*
X113472933Y-93200552D01*
X113472933Y-93343409D01*
X113425314Y-93533885D01*
X113377695Y-93629123D01*
X113282457Y-93724361D01*
X113139600Y-93771980D01*
X112901504Y-93771980D01*
X114425314Y-93771980D02*
X113853885Y-93771980D01*
X114139600Y-93771980D02*
X114139600Y-92771980D01*
X114044361Y-92914838D01*
X113949123Y-93010076D01*
X113853885Y-93057695D01*
X131521295Y-96632780D02*
X131521295Y-97442304D01*
X131568914Y-97537542D01*
X131616533Y-97585161D01*
X131711771Y-97632780D01*
X131902247Y-97632780D01*
X131997485Y-97585161D01*
X132045104Y-97537542D01*
X132092723Y-97442304D01*
X132092723Y-96632780D01*
X133092723Y-97632780D02*
X132521295Y-97632780D01*
X132807009Y-97632780D02*
X132807009Y-96632780D01*
X132711771Y-96775638D01*
X132616533Y-96870876D01*
X132521295Y-96918495D01*
X117536933Y-93517980D02*
X117203600Y-93041790D01*
X116965504Y-93517980D02*
X116965504Y-92517980D01*
X117346457Y-92517980D01*
X117441695Y-92565600D01*
X117489314Y-92613219D01*
X117536933Y-92708457D01*
X117536933Y-92851314D01*
X117489314Y-92946552D01*
X117441695Y-92994171D01*
X117346457Y-93041790D01*
X116965504Y-93041790D01*
X118394076Y-92851314D02*
X118394076Y-93517980D01*
X118155980Y-92470361D02*
X117917885Y-93184647D01*
X118536933Y-93184647D01*
X147552980Y-86337733D02*
X148267266Y-86337733D01*
X148410123Y-86385352D01*
X148505361Y-86480590D01*
X148552980Y-86623447D01*
X148552980Y-86718685D01*
X147552980Y-85432971D02*
X147552980Y-85623447D01*
X147600600Y-85718685D01*
X147648219Y-85766304D01*
X147791076Y-85861542D01*
X147981552Y-85909161D01*
X148362504Y-85909161D01*
X148457742Y-85861542D01*
X148505361Y-85813923D01*
X148552980Y-85718685D01*
X148552980Y-85528209D01*
X148505361Y-85432971D01*
X148457742Y-85385352D01*
X148362504Y-85337733D01*
X148124409Y-85337733D01*
X148029171Y-85385352D01*
X147981552Y-85432971D01*
X147933933Y-85528209D01*
X147933933Y-85718685D01*
X147981552Y-85813923D01*
X148029171Y-85861542D01*
X148124409Y-85909161D01*
X123134380Y-91416095D02*
X122134380Y-91416095D01*
X122134380Y-91178000D01*
X122182000Y-91035142D01*
X122277238Y-90939904D01*
X122372476Y-90892285D01*
X122562952Y-90844666D01*
X122705809Y-90844666D01*
X122896285Y-90892285D01*
X122991523Y-90939904D01*
X123086761Y-91035142D01*
X123134380Y-91178000D01*
X123134380Y-91416095D01*
X122467714Y-89987523D02*
X123134380Y-89987523D01*
X122086761Y-90225619D02*
X122801047Y-90463714D01*
X122801047Y-89844666D01*
X122937542Y-89015866D02*
X122985161Y-89063485D01*
X123032780Y-89206342D01*
X123032780Y-89301580D01*
X122985161Y-89444438D01*
X122889923Y-89539676D01*
X122794685Y-89587295D01*
X122604209Y-89634914D01*
X122461352Y-89634914D01*
X122270876Y-89587295D01*
X122175638Y-89539676D01*
X122080400Y-89444438D01*
X122032780Y-89301580D01*
X122032780Y-89206342D01*
X122080400Y-89063485D01*
X122128019Y-89015866D01*
X122461352Y-88444438D02*
X122413733Y-88539676D01*
X122366114Y-88587295D01*
X122270876Y-88634914D01*
X122223257Y-88634914D01*
X122128019Y-88587295D01*
X122080400Y-88539676D01*
X122032780Y-88444438D01*
X122032780Y-88253961D01*
X122080400Y-88158723D01*
X122128019Y-88111104D01*
X122223257Y-88063485D01*
X122270876Y-88063485D01*
X122366114Y-88111104D01*
X122413733Y-88158723D01*
X122461352Y-88253961D01*
X122461352Y-88444438D01*
X122508971Y-88539676D01*
X122556590Y-88587295D01*
X122651828Y-88634914D01*
X122842304Y-88634914D01*
X122937542Y-88587295D01*
X122985161Y-88539676D01*
X123032780Y-88444438D01*
X123032780Y-88253961D01*
X122985161Y-88158723D01*
X122937542Y-88111104D01*
X122842304Y-88063485D01*
X122651828Y-88063485D01*
X122556590Y-88111104D01*
X122508971Y-88158723D01*
X122461352Y-88253961D01*
X123582133Y-100077542D02*
X123534514Y-100125161D01*
X123391657Y-100172780D01*
X123296419Y-100172780D01*
X123153561Y-100125161D01*
X123058323Y-100029923D01*
X123010704Y-99934685D01*
X122963085Y-99744209D01*
X122963085Y-99601352D01*
X123010704Y-99410876D01*
X123058323Y-99315638D01*
X123153561Y-99220400D01*
X123296419Y-99172780D01*
X123391657Y-99172780D01*
X123534514Y-99220400D01*
X123582133Y-99268019D01*
X124058323Y-100172780D02*
X124248800Y-100172780D01*
X124344038Y-100125161D01*
X124391657Y-100077542D01*
X124486895Y-99934685D01*
X124534514Y-99744209D01*
X124534514Y-99363257D01*
X124486895Y-99268019D01*
X124439276Y-99220400D01*
X124344038Y-99172780D01*
X124153561Y-99172780D01*
X124058323Y-99220400D01*
X124010704Y-99268019D01*
X123963085Y-99363257D01*
X123963085Y-99601352D01*
X124010704Y-99696590D01*
X124058323Y-99744209D01*
X124153561Y-99791828D01*
X124344038Y-99791828D01*
X124439276Y-99744209D01*
X124486895Y-99696590D01*
X124534514Y-99601352D01*
X138041238Y-88809580D02*
X138279333Y-89809580D01*
X138469809Y-89095295D01*
X138660285Y-89809580D01*
X138898380Y-88809580D01*
X139279333Y-89809580D02*
X139279333Y-88809580D01*
X139660285Y-88809580D01*
X139755523Y-88857200D01*
X139803142Y-88904819D01*
X139850761Y-89000057D01*
X139850761Y-89142914D01*
X139803142Y-89238152D01*
X139755523Y-89285771D01*
X139660285Y-89333390D01*
X139279333Y-89333390D01*
X140803142Y-89809580D02*
X140231714Y-89809580D01*
X140517428Y-89809580D02*
X140517428Y-88809580D01*
X140422190Y-88952438D01*
X140326952Y-89047676D01*
X140231714Y-89095295D01*
X177533466Y-105506780D02*
X177200133Y-105030590D01*
X176962038Y-105506780D02*
X176962038Y-104506780D01*
X177342990Y-104506780D01*
X177438228Y-104554400D01*
X177485847Y-104602019D01*
X177533466Y-104697257D01*
X177533466Y-104840114D01*
X177485847Y-104935352D01*
X177438228Y-104982971D01*
X177342990Y-105030590D01*
X176962038Y-105030590D01*
X177962038Y-104982971D02*
X178295371Y-104982971D01*
X178438228Y-105506780D02*
X177962038Y-105506780D01*
X177962038Y-104506780D01*
X178438228Y-104506780D01*
X179200133Y-104982971D02*
X178866800Y-104982971D01*
X178866800Y-105506780D02*
X178866800Y-104506780D01*
X179342990Y-104506780D01*
X179866800Y-104506780D02*
X179866800Y-104744876D01*
X179628704Y-104649638D02*
X179866800Y-104744876D01*
X180104895Y-104649638D01*
X179723942Y-104935352D02*
X179866800Y-104744876D01*
X180009657Y-104935352D01*
X180628704Y-104506780D02*
X180628704Y-104744876D01*
X180390609Y-104649638D02*
X180628704Y-104744876D01*
X180866800Y-104649638D01*
X180485847Y-104935352D02*
X180628704Y-104744876D01*
X180771561Y-104935352D01*
X177431866Y-82799180D02*
X177098533Y-82322990D01*
X176860438Y-82799180D02*
X176860438Y-81799180D01*
X177241390Y-81799180D01*
X177336628Y-81846800D01*
X177384247Y-81894419D01*
X177431866Y-81989657D01*
X177431866Y-82132514D01*
X177384247Y-82227752D01*
X177336628Y-82275371D01*
X177241390Y-82322990D01*
X176860438Y-82322990D01*
X177860438Y-82275371D02*
X178193771Y-82275371D01*
X178336628Y-82799180D02*
X177860438Y-82799180D01*
X177860438Y-81799180D01*
X178336628Y-81799180D01*
X179098533Y-82275371D02*
X178765200Y-82275371D01*
X178765200Y-82799180D02*
X178765200Y-81799180D01*
X179241390Y-81799180D01*
X179765200Y-81799180D02*
X179765200Y-82037276D01*
X179527104Y-81942038D02*
X179765200Y-82037276D01*
X180003295Y-81942038D01*
X179622342Y-82227752D02*
X179765200Y-82037276D01*
X179908057Y-82227752D01*
X180527104Y-81799180D02*
X180527104Y-82037276D01*
X180289009Y-81942038D02*
X180527104Y-82037276D01*
X180765200Y-81942038D01*
X180384247Y-82227752D02*
X180527104Y-82037276D01*
X180669961Y-82227752D01*
X105651466Y-83002380D02*
X105318133Y-82526190D01*
X105080038Y-83002380D02*
X105080038Y-82002380D01*
X105460990Y-82002380D01*
X105556228Y-82050000D01*
X105603847Y-82097619D01*
X105651466Y-82192857D01*
X105651466Y-82335714D01*
X105603847Y-82430952D01*
X105556228Y-82478571D01*
X105460990Y-82526190D01*
X105080038Y-82526190D01*
X106080038Y-82478571D02*
X106413371Y-82478571D01*
X106556228Y-83002380D02*
X106080038Y-83002380D01*
X106080038Y-82002380D01*
X106556228Y-82002380D01*
X107318133Y-82478571D02*
X106984800Y-82478571D01*
X106984800Y-83002380D02*
X106984800Y-82002380D01*
X107460990Y-82002380D01*
X107984800Y-82002380D02*
X107984800Y-82240476D01*
X107746704Y-82145238D02*
X107984800Y-82240476D01*
X108222895Y-82145238D01*
X107841942Y-82430952D02*
X107984800Y-82240476D01*
X108127657Y-82430952D01*
X108746704Y-82002380D02*
X108746704Y-82240476D01*
X108508609Y-82145238D02*
X108746704Y-82240476D01*
X108984800Y-82145238D01*
X108603847Y-82430952D02*
X108746704Y-82240476D01*
X108889561Y-82430952D01*
X103517866Y-106776780D02*
X103184533Y-106300590D01*
X102946438Y-106776780D02*
X102946438Y-105776780D01*
X103327390Y-105776780D01*
X103422628Y-105824400D01*
X103470247Y-105872019D01*
X103517866Y-105967257D01*
X103517866Y-106110114D01*
X103470247Y-106205352D01*
X103422628Y-106252971D01*
X103327390Y-106300590D01*
X102946438Y-106300590D01*
X103946438Y-106252971D02*
X104279771Y-106252971D01*
X104422628Y-106776780D02*
X103946438Y-106776780D01*
X103946438Y-105776780D01*
X104422628Y-105776780D01*
X105184533Y-106252971D02*
X104851200Y-106252971D01*
X104851200Y-106776780D02*
X104851200Y-105776780D01*
X105327390Y-105776780D01*
X105851200Y-105776780D02*
X105851200Y-106014876D01*
X105613104Y-105919638D02*
X105851200Y-106014876D01*
X106089295Y-105919638D01*
X105708342Y-106205352D02*
X105851200Y-106014876D01*
X105994057Y-106205352D01*
X106613104Y-105776780D02*
X106613104Y-106014876D01*
X106375009Y-105919638D02*
X106613104Y-106014876D01*
X106851200Y-105919638D01*
X106470247Y-106205352D02*
X106613104Y-106014876D01*
X106755961Y-106205352D01*
X144930761Y-92773333D02*
X144978380Y-92630476D01*
X144978380Y-92392380D01*
X144930761Y-92297142D01*
X144883142Y-92249523D01*
X144787904Y-92201904D01*
X144692666Y-92201904D01*
X144597428Y-92249523D01*
X144549809Y-92297142D01*
X144502190Y-92392380D01*
X144454571Y-92582857D01*
X144406952Y-92678095D01*
X144359333Y-92725714D01*
X144264095Y-92773333D01*
X144168857Y-92773333D01*
X144073619Y-92725714D01*
X144026000Y-92678095D01*
X143978380Y-92582857D01*
X143978380Y-92344761D01*
X144026000Y-92201904D01*
X143978380Y-91868571D02*
X144978380Y-91630476D01*
X144264095Y-91440000D01*
X144978380Y-91249523D01*
X143978380Y-91011428D01*
X144978380Y-90106666D02*
X144978380Y-90678095D01*
X144978380Y-90392380D02*
X143978380Y-90392380D01*
X144121238Y-90487619D01*
X144216476Y-90582857D01*
X144264095Y-90678095D01*
X123083580Y-92724266D02*
X122607390Y-93057600D01*
X123083580Y-93295695D02*
X122083580Y-93295695D01*
X122083580Y-92914742D01*
X122131200Y-92819504D01*
X122178819Y-92771885D01*
X122274057Y-92724266D01*
X122416914Y-92724266D01*
X122512152Y-92771885D01*
X122559771Y-92819504D01*
X122607390Y-92914742D01*
X122607390Y-93295695D01*
X122083580Y-92390933D02*
X122083580Y-91724266D01*
X123083580Y-92152838D01*
X133802380Y-88812666D02*
X133326190Y-89146000D01*
X133802380Y-89384095D02*
X132802380Y-89384095D01*
X132802380Y-89003142D01*
X132850000Y-88907904D01*
X132897619Y-88860285D01*
X132992857Y-88812666D01*
X133135714Y-88812666D01*
X133230952Y-88860285D01*
X133278571Y-88907904D01*
X133326190Y-89003142D01*
X133326190Y-89384095D01*
X132802380Y-87955523D02*
X132802380Y-88146000D01*
X132850000Y-88241238D01*
X132897619Y-88288857D01*
X133040476Y-88384095D01*
X133230952Y-88431714D01*
X133611904Y-88431714D01*
X133707142Y-88384095D01*
X133754761Y-88336476D01*
X133802380Y-88241238D01*
X133802380Y-88050761D01*
X133754761Y-87955523D01*
X133707142Y-87907904D01*
X133611904Y-87860285D01*
X133373809Y-87860285D01*
X133278571Y-87907904D01*
X133230952Y-87955523D01*
X133183333Y-88050761D01*
X133183333Y-88241238D01*
X133230952Y-88336476D01*
X133278571Y-88384095D01*
X133373809Y-88431714D01*
X138577580Y-94299066D02*
X138101390Y-94632400D01*
X138577580Y-94870495D02*
X137577580Y-94870495D01*
X137577580Y-94489542D01*
X137625200Y-94394304D01*
X137672819Y-94346685D01*
X137768057Y-94299066D01*
X137910914Y-94299066D01*
X138006152Y-94346685D01*
X138053771Y-94394304D01*
X138101390Y-94489542D01*
X138101390Y-94870495D01*
X137577580Y-93394304D02*
X137577580Y-93870495D01*
X138053771Y-93918114D01*
X138006152Y-93870495D01*
X137958533Y-93775257D01*
X137958533Y-93537161D01*
X138006152Y-93441923D01*
X138053771Y-93394304D01*
X138149009Y-93346685D01*
X138387104Y-93346685D01*
X138482342Y-93394304D01*
X138529961Y-93441923D01*
X138577580Y-93537161D01*
X138577580Y-93775257D01*
X138529961Y-93870495D01*
X138482342Y-93918114D01*
X115708133Y-93568780D02*
X115374800Y-93092590D01*
X115136704Y-93568780D02*
X115136704Y-92568780D01*
X115517657Y-92568780D01*
X115612895Y-92616400D01*
X115660514Y-92664019D01*
X115708133Y-92759257D01*
X115708133Y-92902114D01*
X115660514Y-92997352D01*
X115612895Y-93044971D01*
X115517657Y-93092590D01*
X115136704Y-93092590D01*
X116041466Y-92568780D02*
X116660514Y-92568780D01*
X116327180Y-92949733D01*
X116470038Y-92949733D01*
X116565276Y-92997352D01*
X116612895Y-93044971D01*
X116660514Y-93140209D01*
X116660514Y-93378304D01*
X116612895Y-93473542D01*
X116565276Y-93521161D01*
X116470038Y-93568780D01*
X116184323Y-93568780D01*
X116089085Y-93521161D01*
X116041466Y-93473542D01*
X147661333Y-100020380D02*
X147328000Y-99544190D01*
X147089904Y-100020380D02*
X147089904Y-99020380D01*
X147470857Y-99020380D01*
X147566095Y-99068000D01*
X147613714Y-99115619D01*
X147661333Y-99210857D01*
X147661333Y-99353714D01*
X147613714Y-99448952D01*
X147566095Y-99496571D01*
X147470857Y-99544190D01*
X147089904Y-99544190D01*
X148042285Y-99115619D02*
X148089904Y-99068000D01*
X148185142Y-99020380D01*
X148423238Y-99020380D01*
X148518476Y-99068000D01*
X148566095Y-99115619D01*
X148613714Y-99210857D01*
X148613714Y-99306095D01*
X148566095Y-99448952D01*
X147994666Y-100020380D01*
X148613714Y-100020380D01*
X113879333Y-99664780D02*
X113546000Y-99188590D01*
X113307904Y-99664780D02*
X113307904Y-98664780D01*
X113688857Y-98664780D01*
X113784095Y-98712400D01*
X113831714Y-98760019D01*
X113879333Y-98855257D01*
X113879333Y-98998114D01*
X113831714Y-99093352D01*
X113784095Y-99140971D01*
X113688857Y-99188590D01*
X113307904Y-99188590D01*
X114831714Y-99664780D02*
X114260285Y-99664780D01*
X114546000Y-99664780D02*
X114546000Y-98664780D01*
X114450761Y-98807638D01*
X114355523Y-98902876D01*
X114260285Y-98950495D01*
X139715580Y-97364666D02*
X139715580Y-97840857D01*
X138715580Y-97840857D01*
X139715580Y-96507523D02*
X139715580Y-97078952D01*
X139715580Y-96793238D02*
X138715580Y-96793238D01*
X138858438Y-96888476D01*
X138953676Y-96983714D01*
X139001295Y-97078952D01*
X107332980Y-101577733D02*
X108047266Y-101577733D01*
X108190123Y-101625352D01*
X108285361Y-101720590D01*
X108332980Y-101863447D01*
X108332980Y-101958685D01*
X107666314Y-100672971D02*
X108332980Y-100672971D01*
X107285361Y-100911066D02*
X107999647Y-101149161D01*
X107999647Y-100530114D01*
X117675066Y-98918780D02*
X117675066Y-99633066D01*
X117627447Y-99775923D01*
X117532209Y-99871161D01*
X117389352Y-99918780D01*
X117294114Y-99918780D01*
X118103638Y-99014019D02*
X118151257Y-98966400D01*
X118246495Y-98918780D01*
X118484590Y-98918780D01*
X118579828Y-98966400D01*
X118627447Y-99014019D01*
X118675066Y-99109257D01*
X118675066Y-99204495D01*
X118627447Y-99347352D01*
X118056019Y-99918780D01*
X118675066Y-99918780D01*
X109027980Y-88826933D02*
X109742266Y-88826933D01*
X109885123Y-88874552D01*
X109980361Y-88969790D01*
X110027980Y-89112647D01*
X110027980Y-89207885D01*
X110027980Y-87826933D02*
X110027980Y-88398361D01*
X110027980Y-88112647D02*
X109027980Y-88112647D01*
X109170838Y-88207885D01*
X109266076Y-88303123D01*
X109313695Y-88398361D01*
X147039104Y-90977980D02*
X147039104Y-89977980D01*
X147277200Y-89977980D01*
X147420057Y-90025600D01*
X147515295Y-90120838D01*
X147562914Y-90216076D01*
X147610533Y-90406552D01*
X147610533Y-90549409D01*
X147562914Y-90739885D01*
X147515295Y-90835123D01*
X147420057Y-90930361D01*
X147277200Y-90977980D01*
X147039104Y-90977980D01*
X147943866Y-89977980D02*
X148562914Y-89977980D01*
X148229580Y-90358933D01*
X148372438Y-90358933D01*
X148467676Y-90406552D01*
X148515295Y-90454171D01*
X148562914Y-90549409D01*
X148562914Y-90787504D01*
X148515295Y-90882742D01*
X148467676Y-90930361D01*
X148372438Y-90977980D01*
X148086723Y-90977980D01*
X147991485Y-90930361D01*
X147943866Y-90882742D01*
X137895104Y-99918780D02*
X137895104Y-98918780D01*
X138133200Y-98918780D01*
X138276057Y-98966400D01*
X138371295Y-99061638D01*
X138418914Y-99156876D01*
X138466533Y-99347352D01*
X138466533Y-99490209D01*
X138418914Y-99680685D01*
X138371295Y-99775923D01*
X138276057Y-99871161D01*
X138133200Y-99918780D01*
X137895104Y-99918780D01*
X138847485Y-99014019D02*
X138895104Y-98966400D01*
X138990342Y-98918780D01*
X139228438Y-98918780D01*
X139323676Y-98966400D01*
X139371295Y-99014019D01*
X139418914Y-99109257D01*
X139418914Y-99204495D01*
X139371295Y-99347352D01*
X138799866Y-99918780D01*
X139418914Y-99918780D01*
X130421142Y-100026742D02*
X130373523Y-100074361D01*
X130230666Y-100121980D01*
X130135428Y-100121980D01*
X129992571Y-100074361D01*
X129897333Y-99979123D01*
X129849714Y-99883885D01*
X129802095Y-99693409D01*
X129802095Y-99550552D01*
X129849714Y-99360076D01*
X129897333Y-99264838D01*
X129992571Y-99169600D01*
X130135428Y-99121980D01*
X130230666Y-99121980D01*
X130373523Y-99169600D01*
X130421142Y-99217219D01*
X131373523Y-100121980D02*
X130802095Y-100121980D01*
X131087809Y-100121980D02*
X131087809Y-99121980D01*
X130992571Y-99264838D01*
X130897333Y-99360076D01*
X130802095Y-99407695D01*
X132325904Y-100121980D02*
X131754476Y-100121980D01*
X132040190Y-100121980D02*
X132040190Y-99121980D01*
X131944952Y-99264838D01*
X131849714Y-99360076D01*
X131754476Y-99407695D01*
X126814342Y-100026742D02*
X126766723Y-100074361D01*
X126623866Y-100121980D01*
X126528628Y-100121980D01*
X126385771Y-100074361D01*
X126290533Y-99979123D01*
X126242914Y-99883885D01*
X126195295Y-99693409D01*
X126195295Y-99550552D01*
X126242914Y-99360076D01*
X126290533Y-99264838D01*
X126385771Y-99169600D01*
X126528628Y-99121980D01*
X126623866Y-99121980D01*
X126766723Y-99169600D01*
X126814342Y-99217219D01*
X127766723Y-100121980D02*
X127195295Y-100121980D01*
X127481009Y-100121980D02*
X127481009Y-99121980D01*
X127385771Y-99264838D01*
X127290533Y-99360076D01*
X127195295Y-99407695D01*
X128385771Y-99121980D02*
X128481009Y-99121980D01*
X128576247Y-99169600D01*
X128623866Y-99217219D01*
X128671485Y-99312457D01*
X128719104Y-99502933D01*
X128719104Y-99741028D01*
X128671485Y-99931504D01*
X128623866Y-100026742D01*
X128576247Y-100074361D01*
X128481009Y-100121980D01*
X128385771Y-100121980D01*
X128290533Y-100074361D01*
X128242914Y-100026742D01*
X128195295Y-99931504D01*
X128147676Y-99741028D01*
X128147676Y-99502933D01*
X128195295Y-99312457D01*
X128242914Y-99217219D01*
X128290533Y-99169600D01*
X128385771Y-99121980D01*
X134097733Y-99975942D02*
X134050114Y-100023561D01*
X133907257Y-100071180D01*
X133812019Y-100071180D01*
X133669161Y-100023561D01*
X133573923Y-99928323D01*
X133526304Y-99833085D01*
X133478685Y-99642609D01*
X133478685Y-99499752D01*
X133526304Y-99309276D01*
X133573923Y-99214038D01*
X133669161Y-99118800D01*
X133812019Y-99071180D01*
X133907257Y-99071180D01*
X134050114Y-99118800D01*
X134097733Y-99166419D01*
X134431066Y-99071180D02*
X135097733Y-99071180D01*
X134669161Y-100071180D01*
X135926533Y-99925142D02*
X135878914Y-99972761D01*
X135736057Y-100020380D01*
X135640819Y-100020380D01*
X135497961Y-99972761D01*
X135402723Y-99877523D01*
X135355104Y-99782285D01*
X135307485Y-99591809D01*
X135307485Y-99448952D01*
X135355104Y-99258476D01*
X135402723Y-99163238D01*
X135497961Y-99068000D01*
X135640819Y-99020380D01*
X135736057Y-99020380D01*
X135878914Y-99068000D01*
X135926533Y-99115619D01*
X136783676Y-99020380D02*
X136593200Y-99020380D01*
X136497961Y-99068000D01*
X136450342Y-99115619D01*
X136355104Y-99258476D01*
X136307485Y-99448952D01*
X136307485Y-99829904D01*
X136355104Y-99925142D01*
X136402723Y-99972761D01*
X136497961Y-100020380D01*
X136688438Y-100020380D01*
X136783676Y-99972761D01*
X136831295Y-99925142D01*
X136878914Y-99829904D01*
X136878914Y-99591809D01*
X136831295Y-99496571D01*
X136783676Y-99448952D01*
X136688438Y-99401333D01*
X136497961Y-99401333D01*
X136402723Y-99448952D01*
X136355104Y-99496571D01*
X136307485Y-99591809D01*
X141209733Y-95048342D02*
X141162114Y-95095961D01*
X141019257Y-95143580D01*
X140924019Y-95143580D01*
X140781161Y-95095961D01*
X140685923Y-95000723D01*
X140638304Y-94905485D01*
X140590685Y-94715009D01*
X140590685Y-94572152D01*
X140638304Y-94381676D01*
X140685923Y-94286438D01*
X140781161Y-94191200D01*
X140924019Y-94143580D01*
X141019257Y-94143580D01*
X141162114Y-94191200D01*
X141209733Y-94238819D01*
X142114495Y-94143580D02*
X141638304Y-94143580D01*
X141590685Y-94619771D01*
X141638304Y-94572152D01*
X141733542Y-94524533D01*
X141971638Y-94524533D01*
X142066876Y-94572152D01*
X142114495Y-94619771D01*
X142162114Y-94715009D01*
X142162114Y-94953104D01*
X142114495Y-95048342D01*
X142066876Y-95095961D01*
X141971638Y-95143580D01*
X141733542Y-95143580D01*
X141638304Y-95095961D01*
X141590685Y-95048342D01*
X145883333Y-100026742D02*
X145835714Y-100074361D01*
X145692857Y-100121980D01*
X145597619Y-100121980D01*
X145454761Y-100074361D01*
X145359523Y-99979123D01*
X145311904Y-99883885D01*
X145264285Y-99693409D01*
X145264285Y-99550552D01*
X145311904Y-99360076D01*
X145359523Y-99264838D01*
X145454761Y-99169600D01*
X145597619Y-99121980D01*
X145692857Y-99121980D01*
X145835714Y-99169600D01*
X145883333Y-99217219D01*
X146740476Y-99455314D02*
X146740476Y-100121980D01*
X146502380Y-99074361D02*
X146264285Y-99788647D01*
X146883333Y-99788647D01*
X143216333Y-100260742D02*
X143168714Y-100308361D01*
X143025857Y-100355980D01*
X142930619Y-100355980D01*
X142787761Y-100308361D01*
X142692523Y-100213123D01*
X142644904Y-100117885D01*
X142597285Y-99927409D01*
X142597285Y-99784552D01*
X142644904Y-99594076D01*
X142692523Y-99498838D01*
X142787761Y-99403600D01*
X142930619Y-99355980D01*
X143025857Y-99355980D01*
X143168714Y-99403600D01*
X143216333Y-99451219D01*
X143549666Y-99355980D02*
X144168714Y-99355980D01*
X143835380Y-99736933D01*
X143978238Y-99736933D01*
X144073476Y-99784552D01*
X144121095Y-99832171D01*
X144168714Y-99927409D01*
X144168714Y-100165504D01*
X144121095Y-100260742D01*
X144073476Y-100308361D01*
X143978238Y-100355980D01*
X143692523Y-100355980D01*
X143597285Y-100308361D01*
X143549666Y-100260742D01*
X111999733Y-99620342D02*
X111952114Y-99667961D01*
X111809257Y-99715580D01*
X111714019Y-99715580D01*
X111571161Y-99667961D01*
X111475923Y-99572723D01*
X111428304Y-99477485D01*
X111380685Y-99287009D01*
X111380685Y-99144152D01*
X111428304Y-98953676D01*
X111475923Y-98858438D01*
X111571161Y-98763200D01*
X111714019Y-98715580D01*
X111809257Y-98715580D01*
X111952114Y-98763200D01*
X111999733Y-98810819D01*
X112380685Y-98810819D02*
X112428304Y-98763200D01*
X112523542Y-98715580D01*
X112761638Y-98715580D01*
X112856876Y-98763200D01*
X112904495Y-98810819D01*
X112952114Y-98906057D01*
X112952114Y-99001295D01*
X112904495Y-99144152D01*
X112333066Y-99715580D01*
X112952114Y-99715580D01*
X140498533Y-99874342D02*
X140450914Y-99921961D01*
X140308057Y-99969580D01*
X140212819Y-99969580D01*
X140069961Y-99921961D01*
X139974723Y-99826723D01*
X139927104Y-99731485D01*
X139879485Y-99541009D01*
X139879485Y-99398152D01*
X139927104Y-99207676D01*
X139974723Y-99112438D01*
X140069961Y-99017200D01*
X140212819Y-98969580D01*
X140308057Y-98969580D01*
X140450914Y-99017200D01*
X140498533Y-99064819D01*
X141450914Y-99969580D02*
X140879485Y-99969580D01*
X141165200Y-99969580D02*
X141165200Y-98969580D01*
X141069961Y-99112438D01*
X140974723Y-99207676D01*
X140879485Y-99255295D01*
M02*
